<svg width="359" height="692" viewBox="0 0 359 692" fill="none" xmlns="http://www.w3.org/2000/svg">
<path d="M227.375 270.125C227.375 270.273 227.331 270.418 227.249 270.542C227.166 270.665 227.049 270.761 226.912 270.818C226.775 270.875 226.624 270.89 226.479 270.861C226.333 270.832 226.2 270.76 226.095 270.655C225.99 270.55 225.918 270.417 225.889 270.271C225.86 270.126 225.875 269.975 225.932 269.838C225.989 269.701 226.085 269.584 226.208 269.501C226.332 269.419 226.477 269.375 226.625 269.375C226.824 269.375 227.015 269.454 227.155 269.595C227.296 269.735 227.375 269.926 227.375 270.125ZM233.375 270.875C233.523 270.875 233.668 270.831 233.792 270.749C233.915 270.666 234.011 270.549 234.068 270.412C234.125 270.275 234.14 270.124 234.111 269.979C234.082 269.833 234.01 269.7 233.905 269.595C233.8 269.49 233.667 269.418 233.521 269.389C233.376 269.36 233.225 269.375 233.088 269.432C232.951 269.489 232.834 269.585 232.751 269.708C232.669 269.832 232.625 269.977 232.625 270.125C232.625 270.324 232.704 270.515 232.845 270.655C232.985 270.796 233.176 270.875 233.375 270.875ZM239.463 270.021C239.316 270.089 239.156 270.124 238.994 270.125C238.825 270.125 238.658 270.085 238.506 270.01C238.354 269.935 238.221 269.826 238.118 269.692L237.875 269.383V274.25C237.875 275.145 237.519 276.004 236.886 276.636C236.254 277.269 235.395 277.625 234.5 277.625H225.5C224.605 277.625 223.746 277.269 223.114 276.636C222.481 276.004 222.125 275.145 222.125 274.25V269.383L221.888 269.69C221.784 269.825 221.651 269.934 221.499 270.009C221.347 270.085 221.179 270.124 221.009 270.125C220.847 270.124 220.688 270.089 220.541 270.021C220.309 269.919 220.12 269.742 220.003 269.518C219.886 269.294 219.85 269.037 219.899 268.789L221.439 260.539C221.467 260.388 221.526 260.245 221.611 260.118C221.697 259.991 221.808 259.882 221.937 259.8C222.066 259.717 222.211 259.661 222.362 259.636C222.513 259.612 222.668 259.618 222.817 259.655H222.832L227.804 261.125H232.196L237.172 259.662H237.187C237.336 259.625 237.49 259.619 237.642 259.644C237.793 259.669 237.938 259.724 238.067 259.807C238.196 259.89 238.307 259.998 238.392 260.125C238.478 260.253 238.537 260.396 238.565 260.547L240.104 268.797C240.152 269.043 240.115 269.299 239.998 269.521C239.882 269.744 239.693 269.92 239.463 270.021ZM227.117 261.704L222.626 260.384C222.597 260.378 222.568 260.375 222.539 260.375C222.452 260.375 222.368 260.406 222.301 260.462C222.234 260.517 222.188 260.595 222.172 260.681L220.633 268.931C220.617 269.013 220.629 269.099 220.668 269.174C220.706 269.249 220.769 269.308 220.845 269.343C220.922 269.378 221.008 269.386 221.09 269.366C221.172 269.346 221.244 269.299 221.296 269.232L227.117 261.704ZM237.125 268.414L232.062 261.875H227.938L222.875 268.414V274.25C222.875 274.946 223.152 275.614 223.644 276.106C224.136 276.598 224.804 276.875 225.5 276.875H229.625V275.156L228.235 273.765C228.164 273.695 228.125 273.6 228.125 273.5C228.125 273.4 228.164 273.305 228.235 273.235C228.305 273.164 228.4 273.125 228.5 273.125C228.6 273.125 228.695 273.164 228.765 273.235L230 274.469L231.235 273.235C231.305 273.164 231.4 273.125 231.5 273.125C231.6 273.125 231.695 273.164 231.765 273.235C231.836 273.305 231.875 273.4 231.875 273.5C231.875 273.6 231.836 273.695 231.765 273.765L230.375 275.156V276.875H234.5C235.196 276.875 235.864 276.598 236.356 276.106C236.848 275.614 237.125 274.946 237.125 274.25V268.414ZM239.367 268.928L237.828 260.678C237.819 260.628 237.8 260.581 237.771 260.539C237.743 260.496 237.707 260.46 237.665 260.433C237.622 260.405 237.575 260.386 237.525 260.377C237.475 260.369 237.424 260.37 237.374 260.382L232.883 261.704L238.706 269.231C238.758 269.296 238.83 269.342 238.912 269.362C238.993 269.381 239.079 269.373 239.155 269.338C239.231 269.303 239.293 269.244 239.332 269.17C239.37 269.095 239.383 269.01 239.367 268.928Z" fill="white" fill-opacity="0.21"/>
<path d="M145.375 140.125C145.375 140.273 145.331 140.418 145.249 140.542C145.166 140.665 145.049 140.761 144.912 140.818C144.775 140.875 144.624 140.89 144.479 140.861C144.333 140.832 144.2 140.76 144.095 140.655C143.99 140.55 143.918 140.417 143.889 140.271C143.86 140.126 143.875 139.975 143.932 139.838C143.989 139.701 144.085 139.584 144.208 139.501C144.332 139.419 144.477 139.375 144.625 139.375C144.824 139.375 145.015 139.454 145.155 139.595C145.296 139.735 145.375 139.926 145.375 140.125ZM151.375 140.875C151.523 140.875 151.668 140.831 151.792 140.749C151.915 140.666 152.011 140.549 152.068 140.412C152.125 140.275 152.14 140.124 152.111 139.979C152.082 139.833 152.01 139.7 151.905 139.595C151.8 139.49 151.667 139.418 151.521 139.389C151.376 139.36 151.225 139.375 151.088 139.432C150.951 139.489 150.834 139.585 150.751 139.708C150.669 139.832 150.625 139.977 150.625 140.125C150.625 140.324 150.704 140.515 150.845 140.655C150.985 140.796 151.176 140.875 151.375 140.875ZM157.463 140.021C157.316 140.089 157.156 140.124 156.994 140.125C156.825 140.125 156.658 140.085 156.506 140.01C156.354 139.935 156.221 139.826 156.118 139.692L155.875 139.383V144.25C155.875 145.145 155.519 146.004 154.886 146.636C154.254 147.269 153.395 147.625 152.5 147.625H143.5C142.605 147.625 141.746 147.269 141.114 146.636C140.481 146.004 140.125 145.145 140.125 144.25V139.383L139.888 139.69C139.784 139.825 139.651 139.934 139.499 140.009C139.347 140.085 139.179 140.124 139.009 140.125C138.847 140.124 138.688 140.089 138.541 140.021C138.309 139.919 138.12 139.742 138.003 139.518C137.886 139.294 137.85 139.037 137.899 138.789L139.439 130.539C139.467 130.388 139.526 130.245 139.611 130.118C139.697 129.991 139.808 129.882 139.937 129.8C140.066 129.717 140.211 129.661 140.362 129.636C140.513 129.612 140.668 129.618 140.817 129.655H140.832L145.804 131.125H150.196L155.172 129.663H155.187C155.336 129.625 155.49 129.619 155.642 129.644C155.793 129.669 155.938 129.724 156.067 129.807C156.196 129.89 156.307 129.998 156.392 130.125C156.478 130.253 156.537 130.396 156.565 130.547L158.104 138.797C158.152 139.043 158.115 139.299 157.998 139.521C157.882 139.744 157.693 139.92 157.463 140.021ZM145.117 131.704L140.626 130.384C140.597 130.378 140.568 130.375 140.539 130.375C140.452 130.375 140.368 130.406 140.301 130.462C140.234 130.517 140.188 130.595 140.172 130.681L138.633 138.931C138.617 139.013 138.629 139.099 138.668 139.174C138.706 139.249 138.769 139.308 138.845 139.343C138.922 139.378 139.008 139.386 139.09 139.366C139.172 139.346 139.244 139.299 139.296 139.233L145.117 131.704ZM155.125 138.414L150.062 131.875H145.938L140.875 138.414V144.25C140.875 144.946 141.152 145.614 141.644 146.106C142.136 146.598 142.804 146.875 143.5 146.875H147.625V145.156L146.235 143.765C146.164 143.695 146.125 143.6 146.125 143.5C146.125 143.4 146.164 143.305 146.235 143.235C146.305 143.164 146.4 143.125 146.5 143.125C146.6 143.125 146.695 143.164 146.765 143.235L148 144.469L149.235 143.235C149.305 143.164 149.4 143.125 149.5 143.125C149.6 143.125 149.695 143.164 149.765 143.235C149.836 143.305 149.875 143.4 149.875 143.5C149.875 143.6 149.836 143.695 149.765 143.765L148.375 145.156V146.875H152.5C153.196 146.875 153.864 146.598 154.356 146.106C154.848 145.614 155.125 144.946 155.125 144.25V138.414ZM157.367 138.928L155.828 130.678C155.819 130.628 155.8 130.581 155.771 130.539C155.743 130.496 155.707 130.46 155.665 130.433C155.622 130.405 155.575 130.386 155.525 130.377C155.475 130.369 155.424 130.37 155.374 130.382L150.883 131.704L156.706 139.231C156.758 139.296 156.83 139.342 156.912 139.362C156.993 139.381 157.079 139.373 157.155 139.338C157.231 139.303 157.293 139.244 157.332 139.17C157.37 139.095 157.383 139.01 157.367 138.928Z" fill="white" fill-opacity="0.21"/>
<path d="M162.375 520.125C162.375 520.273 162.331 520.418 162.249 520.542C162.166 520.665 162.049 520.761 161.912 520.818C161.775 520.875 161.624 520.89 161.479 520.861C161.333 520.832 161.2 520.76 161.095 520.655C160.99 520.55 160.918 520.417 160.889 520.271C160.86 520.126 160.875 519.975 160.932 519.838C160.989 519.701 161.085 519.584 161.208 519.501C161.332 519.419 161.477 519.375 161.625 519.375C161.824 519.375 162.015 519.454 162.155 519.595C162.296 519.735 162.375 519.926 162.375 520.125ZM168.375 520.875C168.523 520.875 168.668 520.831 168.792 520.749C168.915 520.666 169.011 520.549 169.068 520.412C169.125 520.275 169.14 520.124 169.111 519.979C169.082 519.833 169.01 519.7 168.905 519.595C168.8 519.49 168.667 519.418 168.521 519.389C168.376 519.36 168.225 519.375 168.088 519.432C167.951 519.489 167.834 519.585 167.751 519.708C167.669 519.832 167.625 519.977 167.625 520.125C167.625 520.324 167.704 520.515 167.845 520.655C167.985 520.796 168.176 520.875 168.375 520.875ZM174.463 520.021C174.316 520.089 174.156 520.124 173.994 520.125C173.825 520.125 173.658 520.085 173.506 520.01C173.354 519.935 173.221 519.826 173.118 519.692L172.875 519.383V524.25C172.875 525.145 172.519 526.004 171.886 526.636C171.254 527.269 170.395 527.625 169.5 527.625H160.5C159.605 527.625 158.746 527.269 158.114 526.636C157.481 526.004 157.125 525.145 157.125 524.25V519.383L156.888 519.69C156.784 519.825 156.651 519.934 156.499 520.009C156.347 520.085 156.179 520.124 156.009 520.125C155.847 520.124 155.688 520.089 155.541 520.021C155.309 519.919 155.12 519.742 155.003 519.518C154.886 519.294 154.85 519.037 154.899 518.789L156.439 510.539C156.467 510.388 156.526 510.245 156.611 510.118C156.697 509.991 156.808 509.882 156.937 509.8C157.066 509.717 157.211 509.661 157.362 509.636C157.513 509.612 157.668 509.618 157.817 509.655H157.832L162.804 511.125H167.196L172.172 509.663H172.187C172.336 509.625 172.49 509.619 172.642 509.644C172.793 509.669 172.938 509.724 173.067 509.807C173.196 509.89 173.307 509.998 173.392 510.125C173.478 510.253 173.537 510.396 173.565 510.547L175.104 518.797C175.152 519.043 175.115 519.299 174.998 519.521C174.882 519.744 174.693 519.92 174.463 520.021ZM162.117 511.704L157.626 510.384C157.597 510.378 157.568 510.375 157.539 510.375C157.452 510.375 157.368 510.406 157.301 510.462C157.234 510.517 157.188 510.595 157.172 510.681L155.633 518.931C155.617 519.013 155.629 519.099 155.668 519.174C155.706 519.249 155.769 519.308 155.845 519.343C155.922 519.378 156.008 519.386 156.09 519.366C156.172 519.346 156.244 519.299 156.296 519.233L162.117 511.704ZM172.125 518.414L167.062 511.875H162.938L157.875 518.414V524.25C157.875 524.946 158.152 525.614 158.644 526.106C159.136 526.598 159.804 526.875 160.5 526.875H164.625V525.156L163.235 523.765C163.164 523.695 163.125 523.6 163.125 523.5C163.125 523.4 163.164 523.305 163.235 523.235C163.305 523.164 163.4 523.125 163.5 523.125C163.6 523.125 163.695 523.164 163.765 523.235L165 524.469L166.235 523.235C166.305 523.164 166.4 523.125 166.5 523.125C166.6 523.125 166.695 523.164 166.765 523.235C166.836 523.305 166.875 523.4 166.875 523.5C166.875 523.6 166.836 523.695 166.765 523.765L165.375 525.156V526.875H169.5C170.196 526.875 170.864 526.598 171.356 526.106C171.848 525.614 172.125 524.946 172.125 524.25V518.414ZM174.367 518.928L172.828 510.678C172.819 510.628 172.8 510.581 172.771 510.539C172.743 510.496 172.707 510.46 172.665 510.433C172.622 510.405 172.575 510.386 172.525 510.377C172.475 510.369 172.424 510.37 172.374 510.382L167.883 511.704L173.706 519.231C173.758 519.296 173.83 519.342 173.912 519.362C173.993 519.381 174.079 519.373 174.155 519.338C174.231 519.303 174.293 519.244 174.332 519.17C174.37 519.095 174.383 519.01 174.367 518.928Z" fill="white" fill-opacity="0.21"/>
<path d="M91.375 431.125C91.375 431.273 91.331 431.418 91.2486 431.542C91.1662 431.665 91.0491 431.761 90.912 431.818C90.775 431.875 90.6242 431.89 90.4787 431.861C90.3332 431.832 90.1996 431.76 90.0947 431.655C89.9898 431.55 89.9183 431.417 89.8894 431.271C89.8605 431.126 89.8753 430.975 89.9321 430.838C89.9889 430.701 90.085 430.584 90.2083 430.501C90.3317 430.419 90.4767 430.375 90.625 430.375C90.8239 430.375 91.0147 430.454 91.1553 430.595C91.296 430.735 91.375 430.926 91.375 431.125ZM97.375 431.875C97.5233 431.875 97.6683 431.831 97.7917 431.749C97.915 431.666 98.0111 431.549 98.0679 431.412C98.1247 431.275 98.1395 431.124 98.1106 430.979C98.0816 430.833 98.0102 430.7 97.9053 430.595C97.8004 430.49 97.6668 430.418 97.5213 430.389C97.3758 430.36 97.225 430.375 97.088 430.432C96.9509 430.489 96.8338 430.585 96.7514 430.708C96.669 430.832 96.625 430.977 96.625 431.125C96.625 431.324 96.704 431.515 96.8447 431.655C96.9853 431.796 97.1761 431.875 97.375 431.875ZM103.463 431.021C103.316 431.089 103.156 431.124 102.994 431.125C102.825 431.125 102.658 431.085 102.506 431.01C102.354 430.935 102.221 430.826 102.118 430.692L101.875 430.383V435.25C101.875 436.145 101.519 437.004 100.886 437.636C100.254 438.269 99.3951 438.625 98.5 438.625H89.5C88.6049 438.625 87.7464 438.269 87.1135 437.636C86.4806 437.004 86.125 436.145 86.125 435.25V430.383L85.8878 430.69C85.7843 430.825 85.6513 430.934 85.499 431.009C85.3468 431.085 85.1793 431.124 85.0094 431.125C84.8475 431.124 84.6876 431.089 84.5406 431.021C84.3094 430.919 84.1197 430.742 84.0031 430.518C83.8865 430.294 83.8499 430.037 83.8994 429.789L85.4387 421.539C85.467 421.388 85.5258 421.245 85.6115 421.118C85.6972 420.991 85.808 420.882 85.937 420.8C86.0661 420.717 86.2107 420.661 86.362 420.636C86.5133 420.612 86.6681 420.618 86.8169 420.655H86.8319L91.8044 422.125H96.1956L101.172 420.663H101.187C101.336 420.625 101.49 420.619 101.642 420.644C101.793 420.669 101.938 420.724 102.067 420.807C102.196 420.89 102.307 420.998 102.392 421.125C102.478 421.253 102.537 421.396 102.565 421.547L104.104 429.797C104.152 430.043 104.115 430.299 103.998 430.521C103.882 430.744 103.693 430.92 103.463 431.021ZM91.1172 422.704L86.6256 421.384C86.5973 421.378 86.5684 421.375 86.5394 421.375C86.4521 421.375 86.3677 421.406 86.3006 421.462C86.2335 421.517 86.188 421.595 86.1719 421.681L84.6325 429.931C84.6165 430.013 84.6289 430.099 84.6675 430.174C84.7061 430.249 84.7688 430.308 84.8455 430.343C84.9221 430.378 85.0082 430.386 85.09 430.366C85.1718 430.346 85.2444 430.299 85.2962 430.233L91.1172 422.704ZM101.125 429.414L96.0625 422.875H91.9375L86.875 429.414V435.25C86.875 435.946 87.1516 436.614 87.6438 437.106C88.1361 437.598 88.8038 437.875 89.5 437.875H93.625V436.156L92.2347 434.765C92.1643 434.695 92.1248 434.6 92.1248 434.5C92.1248 434.4 92.1643 434.305 92.2347 434.235C92.305 434.164 92.4005 434.125 92.5 434.125C92.5995 434.125 92.6949 434.164 92.7653 434.235L94 435.469L95.2347 434.235C95.305 434.164 95.4005 434.125 95.5 434.125C95.5995 434.125 95.6949 434.164 95.7653 434.235C95.8357 434.305 95.8752 434.4 95.8752 434.5C95.8752 434.6 95.8357 434.695 95.7653 434.765L94.375 436.156V437.875H98.5C99.1962 437.875 99.8639 437.598 100.356 437.106C100.848 436.614 101.125 435.946 101.125 435.25V429.414ZM103.367 429.928L101.828 421.678C101.819 421.628 101.8 421.581 101.771 421.539C101.743 421.496 101.707 421.46 101.665 421.433C101.622 421.405 101.575 421.386 101.525 421.377C101.475 421.369 101.424 421.37 101.374 421.382L96.8828 422.704L102.706 430.231C102.758 430.296 102.83 430.342 102.912 430.362C102.993 430.381 103.079 430.373 103.155 430.338C103.231 430.303 103.293 430.244 103.332 430.17C103.37 430.095 103.383 430.01 103.367 429.928Z" fill="white" fill-opacity="0.21"/>
<path d="M9.375 301.125C9.375 301.273 9.33102 301.418 9.24861 301.542C9.16619 301.665 9.04906 301.761 8.91202 301.818C8.77497 301.875 8.62417 301.89 8.47869 301.861C8.3332 301.832 8.19956 301.76 8.09467 301.655C7.98978 301.55 7.91835 301.417 7.88941 301.271C7.86048 301.126 7.87533 300.975 7.93209 300.838C7.98886 300.701 8.08499 300.584 8.20833 300.501C8.33166 300.419 8.47667 300.375 8.625 300.375C8.82392 300.375 9.01468 300.454 9.15533 300.595C9.29599 300.735 9.375 300.926 9.375 301.125ZM15.375 301.875C15.5233 301.875 15.6683 301.831 15.7917 301.749C15.915 301.666 16.0111 301.549 16.0679 301.412C16.1247 301.275 16.1395 301.124 16.1106 300.979C16.0817 300.833 16.0102 300.7 15.9053 300.595C15.8004 300.49 15.6668 300.418 15.5213 300.389C15.3758 300.36 15.225 300.375 15.088 300.432C14.9509 300.489 14.8338 300.585 14.7514 300.708C14.669 300.832 14.625 300.977 14.625 301.125C14.625 301.324 14.704 301.515 14.8447 301.655C14.9853 301.796 15.1761 301.875 15.375 301.875ZM21.4631 301.021C21.3161 301.089 21.1563 301.124 20.9944 301.125C20.8249 301.125 20.6577 301.085 20.5058 301.01C20.3538 300.935 20.2211 300.826 20.1178 300.692L19.875 300.383V305.25C19.875 306.145 19.5194 307.004 18.8865 307.636C18.2536 308.269 17.3951 308.625 16.5 308.625H7.5C6.6049 308.625 5.74645 308.269 5.11352 307.636C4.48058 307.004 4.125 306.145 4.125 305.25V300.383L3.88782 300.69C3.78427 300.825 3.65128 300.934 3.49903 301.009C3.34677 301.085 3.17928 301.124 3.00938 301.125C2.84749 301.124 2.68765 301.089 2.54063 301.021C2.30936 300.919 2.1197 300.742 2.00308 300.518C1.88646 300.294 1.84988 300.037 1.89938 299.789L3.43875 291.539C3.46703 291.388 3.52582 291.245 3.6115 291.118C3.69718 290.991 3.80796 290.882 3.93702 290.8C4.06608 290.717 4.21071 290.661 4.36201 290.636C4.51332 290.612 4.66811 290.618 4.81688 290.655H4.83188L9.80438 292.125H14.1956L19.1719 290.663H19.1869C19.3356 290.625 19.4904 290.619 19.6417 290.644C19.7931 290.669 19.9377 290.724 20.0667 290.807C20.1958 290.89 20.3066 290.998 20.3923 291.125C20.4779 291.253 20.5367 291.396 20.565 291.547L22.1044 299.797C22.1522 300.043 22.1148 300.299 21.9983 300.521C21.8817 300.744 21.693 300.92 21.4631 301.021ZM9.11719 292.704L4.62563 291.384C4.59731 291.378 4.56839 291.375 4.53938 291.375C4.45214 291.375 4.36771 291.406 4.30063 291.462C4.23355 291.517 4.18802 291.595 4.17188 291.681L2.6325 299.931C2.61655 300.013 2.62888 300.099 2.66751 300.174C2.70614 300.249 2.76882 300.308 2.84546 300.343C2.9221 300.378 3.00824 300.386 3.09001 300.366C3.17179 300.346 3.24443 300.299 3.29625 300.233L9.11719 292.704ZM19.125 299.414L14.0625 292.875H9.9375L4.875 299.414V305.25C4.875 305.946 5.15157 306.614 5.64385 307.106C6.13613 307.598 6.80381 307.875 7.5 307.875H11.625V306.156L10.2347 304.765C10.1643 304.695 10.1248 304.6 10.1248 304.5C10.1248 304.4 10.1643 304.305 10.2347 304.235C10.3051 304.164 10.4005 304.125 10.5 304.125C10.5995 304.125 10.695 304.164 10.7653 304.235L12 305.469L13.2347 304.235C13.3051 304.164 13.4005 304.125 13.5 304.125C13.5995 304.125 13.695 304.164 13.7653 304.235C13.8357 304.305 13.8752 304.4 13.8752 304.5C13.8752 304.6 13.8357 304.695 13.7653 304.765L12.375 306.156V307.875H16.5C17.1962 307.875 17.8639 307.598 18.3562 307.106C18.8484 306.614 19.125 305.946 19.125 305.25V299.414ZM21.3675 299.928L19.8281 291.678C19.8188 291.628 19.7995 291.581 19.7714 291.539C19.7433 291.496 19.7069 291.46 19.6645 291.433C19.6221 291.405 19.5746 291.386 19.5247 291.377C19.4748 291.369 19.4237 291.37 19.3744 291.382L14.8828 292.704L20.7056 300.231C20.7578 300.296 20.8304 300.342 20.9118 300.362C20.9932 300.381 21.0788 300.373 21.1549 300.338C21.2311 300.303 21.2934 300.244 21.3319 300.17C21.3704 300.095 21.3829 300.01 21.3675 299.928Z" fill="white" fill-opacity="0.21"/>
<path d="M26.375 681.125C26.375 681.273 26.331 681.418 26.2486 681.542C26.1662 681.665 26.0491 681.761 25.912 681.818C25.775 681.875 25.6242 681.89 25.4787 681.861C25.3332 681.832 25.1996 681.76 25.0947 681.655C24.9898 681.55 24.9184 681.417 24.8894 681.271C24.8605 681.126 24.8753 680.975 24.9321 680.838C24.9889 680.701 25.085 680.584 25.2083 680.501C25.3317 680.419 25.4767 680.375 25.625 680.375C25.8239 680.375 26.0147 680.454 26.1553 680.595C26.296 680.735 26.375 680.926 26.375 681.125ZM32.375 681.875C32.5233 681.875 32.6683 681.831 32.7917 681.749C32.915 681.666 33.0111 681.549 33.0679 681.412C33.1247 681.275 33.1395 681.124 33.1106 680.979C33.0817 680.833 33.0102 680.7 32.9053 680.595C32.8004 680.49 32.6668 680.418 32.5213 680.389C32.3758 680.36 32.225 680.375 32.088 680.432C31.9509 680.489 31.8338 680.585 31.7514 680.708C31.669 680.832 31.625 680.977 31.625 681.125C31.625 681.324 31.704 681.515 31.8447 681.655C31.9853 681.796 32.1761 681.875 32.375 681.875ZM38.4631 681.021C38.3161 681.089 38.1563 681.124 37.9944 681.125C37.8249 681.125 37.6577 681.085 37.5058 681.01C37.3538 680.935 37.2211 680.826 37.1178 680.692L36.875 680.383V685.25C36.875 686.145 36.5194 687.004 35.8865 687.636C35.2536 688.269 34.3951 688.625 33.5 688.625H24.5C23.6049 688.625 22.7465 688.269 22.1135 687.636C21.4806 687.004 21.125 686.145 21.125 685.25V680.383L20.8878 680.69C20.7843 680.825 20.6513 680.934 20.499 681.009C20.3468 681.085 20.1793 681.124 20.0094 681.125C19.8475 681.124 19.6876 681.089 19.5406 681.021C19.3094 680.919 19.1197 680.742 19.0031 680.518C18.8865 680.294 18.8499 680.037 18.8994 679.789L20.4388 671.539C20.467 671.388 20.5258 671.245 20.6115 671.118C20.6972 670.991 20.808 670.882 20.937 670.8C21.0661 670.717 21.2107 670.661 21.362 670.636C21.5133 670.612 21.6681 670.618 21.8169 670.655H21.8319L26.8044 672.125H31.1956L36.1719 670.663H36.1869C36.3356 670.625 36.4904 670.619 36.6417 670.644C36.7931 670.669 36.9377 670.724 37.0667 670.807C37.1958 670.89 37.3066 670.998 37.3923 671.125C37.4779 671.253 37.5367 671.396 37.565 671.547L39.1044 679.797C39.1522 680.043 39.1148 680.299 38.9983 680.521C38.8817 680.744 38.693 680.92 38.4631 681.021ZM26.1172 672.704L21.6256 671.384C21.5973 671.378 21.5684 671.375 21.5394 671.375C21.4521 671.375 21.3677 671.406 21.3006 671.462C21.2335 671.517 21.188 671.595 21.1719 671.681L19.6325 679.931C19.6166 680.013 19.6289 680.099 19.6675 680.174C19.7061 680.249 19.7688 680.308 19.8455 680.343C19.9221 680.378 20.0082 680.386 20.09 680.366C20.1718 680.346 20.2444 680.299 20.2963 680.233L26.1172 672.704ZM36.125 679.414L31.0625 672.875H26.9375L21.875 679.414V685.25C21.875 685.946 22.1516 686.614 22.6438 687.106C23.1361 687.598 23.8038 687.875 24.5 687.875H28.625V686.156L27.2347 684.765C27.1643 684.695 27.1248 684.6 27.1248 684.5C27.1248 684.4 27.1643 684.305 27.2347 684.235C27.3051 684.164 27.4005 684.125 27.5 684.125C27.5995 684.125 27.695 684.164 27.7653 684.235L29 685.469L30.2347 684.235C30.3051 684.164 30.4005 684.125 30.5 684.125C30.5995 684.125 30.695 684.164 30.7653 684.235C30.8357 684.305 30.8752 684.4 30.8752 684.5C30.8752 684.6 30.8357 684.695 30.7653 684.765L29.375 686.156V687.875H33.5C34.1962 687.875 34.8639 687.598 35.3562 687.106C35.8484 686.614 36.125 685.946 36.125 685.25V679.414ZM38.3675 679.928L36.8281 671.678C36.8188 671.628 36.7995 671.581 36.7714 671.539C36.7433 671.496 36.7069 671.46 36.6645 671.433C36.6221 671.405 36.5746 671.386 36.5247 671.377C36.4748 671.369 36.4237 671.37 36.3744 671.382L31.8828 672.704L37.7056 680.231C37.7578 680.296 37.8304 680.342 37.9118 680.362C37.9932 680.381 38.0788 680.373 38.1549 680.338C38.2311 680.303 38.2934 680.244 38.3319 680.17C38.3704 680.095 38.3829 680.01 38.3675 679.928Z" fill="white" fill-opacity="0.21"/>
<path d="M215.375 143.125C215.375 143.273 215.331 143.418 215.249 143.542C215.166 143.665 215.049 143.761 214.912 143.818C214.775 143.875 214.624 143.89 214.479 143.861C214.333 143.832 214.2 143.76 214.095 143.655C213.99 143.55 213.918 143.417 213.889 143.271C213.86 143.126 213.875 142.975 213.932 142.838C213.989 142.701 214.085 142.584 214.208 142.501C214.332 142.419 214.477 142.375 214.625 142.375C214.824 142.375 215.015 142.454 215.155 142.595C215.296 142.735 215.375 142.926 215.375 143.125ZM221.375 143.875C221.523 143.875 221.668 143.831 221.792 143.749C221.915 143.666 222.011 143.549 222.068 143.412C222.125 143.275 222.14 143.124 222.111 142.979C222.082 142.833 222.01 142.7 221.905 142.595C221.8 142.49 221.667 142.418 221.521 142.389C221.376 142.36 221.225 142.375 221.088 142.432C220.951 142.489 220.834 142.585 220.751 142.708C220.669 142.832 220.625 142.977 220.625 143.125C220.625 143.324 220.704 143.515 220.845 143.655C220.985 143.796 221.176 143.875 221.375 143.875ZM227.463 143.021C227.316 143.089 227.156 143.124 226.994 143.125C226.825 143.125 226.658 143.085 226.506 143.01C226.354 142.935 226.221 142.826 226.118 142.692L225.875 142.383V147.25C225.875 148.145 225.519 149.004 224.886 149.636C224.254 150.269 223.395 150.625 222.5 150.625H213.5C212.605 150.625 211.746 150.269 211.114 149.636C210.481 149.004 210.125 148.145 210.125 147.25V142.383L209.888 142.69C209.784 142.825 209.651 142.934 209.499 143.009C209.347 143.085 209.179 143.124 209.009 143.125C208.847 143.124 208.688 143.089 208.541 143.021C208.309 142.919 208.12 142.742 208.003 142.518C207.886 142.294 207.85 142.037 207.899 141.789L209.439 133.539C209.467 133.388 209.526 133.245 209.611 133.118C209.697 132.991 209.808 132.882 209.937 132.8C210.066 132.717 210.211 132.661 210.362 132.636C210.513 132.612 210.668 132.618 210.817 132.655H210.832L215.804 134.125H220.196L225.172 132.663H225.187C225.336 132.625 225.49 132.619 225.642 132.644C225.793 132.669 225.938 132.724 226.067 132.807C226.196 132.89 226.307 132.998 226.392 133.125C226.478 133.253 226.537 133.396 226.565 133.547L228.104 141.797C228.152 142.043 228.115 142.299 227.998 142.521C227.882 142.744 227.693 142.92 227.463 143.021ZM215.117 134.704L210.626 133.384C210.597 133.378 210.568 133.375 210.539 133.375C210.452 133.375 210.368 133.406 210.301 133.462C210.234 133.517 210.188 133.595 210.172 133.681L208.633 141.931C208.617 142.013 208.629 142.099 208.668 142.174C208.706 142.249 208.769 142.308 208.845 142.343C208.922 142.378 209.008 142.386 209.09 142.366C209.172 142.346 209.244 142.299 209.296 142.233L215.117 134.704ZM225.125 141.414L220.062 134.875H215.938L210.875 141.414V147.25C210.875 147.946 211.152 148.614 211.644 149.106C212.136 149.598 212.804 149.875 213.5 149.875H217.625V148.156L216.235 146.765C216.164 146.695 216.125 146.6 216.125 146.5C216.125 146.4 216.164 146.305 216.235 146.235C216.305 146.164 216.4 146.125 216.5 146.125C216.6 146.125 216.695 146.164 216.765 146.235L218 147.469L219.235 146.235C219.305 146.164 219.4 146.125 219.5 146.125C219.6 146.125 219.695 146.164 219.765 146.235C219.836 146.305 219.875 146.4 219.875 146.5C219.875 146.6 219.836 146.695 219.765 146.765L218.375 148.156V149.875H222.5C223.196 149.875 223.864 149.598 224.356 149.106C224.848 148.614 225.125 147.946 225.125 147.25V141.414ZM227.367 141.928L225.828 133.678C225.819 133.628 225.8 133.581 225.771 133.539C225.743 133.496 225.707 133.46 225.665 133.433C225.622 133.405 225.575 133.386 225.525 133.377C225.475 133.369 225.424 133.37 225.374 133.382L220.883 134.704L226.706 142.231C226.758 142.296 226.83 142.342 226.912 142.362C226.993 142.381 227.079 142.373 227.155 142.338C227.231 142.303 227.293 142.244 227.332 142.17C227.37 142.095 227.383 142.01 227.367 141.928Z" fill="white" fill-opacity="0.21"/>
<path d="M133.375 13.125C133.375 13.2733 133.331 13.4183 133.249 13.5417C133.166 13.665 133.049 13.7611 132.912 13.8179C132.775 13.8747 132.624 13.8895 132.479 13.8606C132.333 13.8317 132.2 13.7602 132.095 13.6553C131.99 13.5504 131.918 13.4168 131.889 13.2713C131.86 13.1258 131.875 12.975 131.932 12.838C131.989 12.7009 132.085 12.5838 132.208 12.5014C132.332 12.419 132.477 12.375 132.625 12.375C132.824 12.375 133.015 12.454 133.155 12.5947C133.296 12.7353 133.375 12.9261 133.375 13.125ZM139.375 13.875C139.523 13.875 139.668 13.831 139.792 13.7486C139.915 13.6662 140.011 13.5491 140.068 13.412C140.125 13.275 140.14 13.1242 140.111 12.9787C140.082 12.8332 140.01 12.6996 139.905 12.5947C139.8 12.4898 139.667 12.4184 139.521 12.3894C139.376 12.3605 139.225 12.3753 139.088 12.4321C138.951 12.4889 138.834 12.585 138.751 12.7083C138.669 12.8317 138.625 12.9767 138.625 13.125C138.625 13.3239 138.704 13.5147 138.845 13.6553C138.985 13.796 139.176 13.875 139.375 13.875ZM145.463 13.0209C145.316 13.0886 145.156 13.1241 144.994 13.125C144.825 13.1246 144.658 13.0853 144.506 13.0102C144.354 12.9352 144.221 12.8263 144.118 12.6919L143.875 12.3834V17.25C143.875 18.1451 143.519 19.0036 142.886 19.6365C142.254 20.2694 141.395 20.625 140.5 20.625H131.5C130.605 20.625 129.746 20.2694 129.114 19.6365C128.481 19.0036 128.125 18.1451 128.125 17.25V12.3834L127.888 12.69C127.784 12.8247 127.651 12.9339 127.499 13.0093C127.347 13.0847 127.179 13.1243 127.009 13.125C126.847 13.1242 126.688 13.0887 126.541 13.0209C126.309 12.9194 126.12 12.742 126.003 12.5179C125.886 12.2939 125.85 12.0367 125.899 11.7891L127.439 3.53906C127.467 3.38836 127.526 3.24503 127.611 3.11787C127.697 2.9907 127.808 2.8824 127.937 2.79961C128.066 2.71682 128.211 2.66128 128.362 2.63641C128.513 2.61155 128.668 2.61787 128.817 2.655H128.832L133.804 4.125H138.196L143.172 2.6625H143.187C143.336 2.62537 143.49 2.61905 143.642 2.64391C143.793 2.66878 143.938 2.72432 144.067 2.80711C144.196 2.8899 144.307 2.9982 144.392 3.12537C144.478 3.25253 144.537 3.39586 144.565 3.54656L146.104 11.7966C146.152 12.0431 146.115 12.2986 145.998 12.5211C145.882 12.7436 145.693 12.9198 145.463 13.0209ZM133.117 4.70438L128.626 3.38438C128.597 3.37807 128.568 3.37493 128.539 3.375C128.452 3.37524 128.368 3.40589 128.301 3.46168C128.234 3.51746 128.188 3.59489 128.172 3.68063L126.633 11.9306C126.617 12.0133 126.629 12.0989 126.668 12.1737C126.706 12.2485 126.769 12.3082 126.845 12.343C126.922 12.3779 127.008 12.3859 127.09 12.3659C127.172 12.3458 127.244 12.2989 127.296 12.2325L133.117 4.70438ZM143.125 11.4141L138.062 4.875H133.938L128.875 11.4141V17.25C128.875 17.9462 129.152 18.6139 129.644 19.1062C130.136 19.5984 130.804 19.875 131.5 19.875H135.625V18.1556L134.235 16.7653C134.164 16.695 134.125 16.5995 134.125 16.5C134.125 16.4005 134.164 16.3051 134.235 16.2347C134.305 16.1643 134.4 16.1248 134.5 16.1248C134.6 16.1248 134.695 16.1643 134.765 16.2347L136 17.4694L137.235 16.2347C137.305 16.1643 137.4 16.1248 137.5 16.1248C137.6 16.1248 137.695 16.1643 137.765 16.2347C137.836 16.3051 137.875 16.4005 137.875 16.5C137.875 16.5995 137.836 16.695 137.765 16.7653L136.375 18.1556V19.875H140.5C141.196 19.875 141.864 19.5984 142.356 19.1062C142.848 18.6139 143.125 17.9462 143.125 17.25V11.4141ZM145.367 11.9278L143.828 3.67781C143.819 3.62804 143.8 3.58067 143.771 3.53855C143.743 3.49644 143.707 3.46045 143.665 3.43277C143.622 3.40509 143.575 3.38628 143.525 3.37748C143.475 3.36868 143.424 3.37007 143.374 3.38156L138.883 4.70438L144.706 12.2306C144.758 12.2961 144.83 12.3423 144.912 12.3617C144.993 12.3812 145.079 12.3728 145.155 12.338C145.231 12.3031 145.293 12.2438 145.332 12.1695C145.37 12.0952 145.383 12.0101 145.367 11.9278Z" fill="white" fill-opacity="0.21"/>
<path d="M150.375 393.125C150.375 393.273 150.331 393.418 150.249 393.542C150.166 393.665 150.049 393.761 149.912 393.818C149.775 393.875 149.624 393.89 149.479 393.861C149.333 393.832 149.2 393.76 149.095 393.655C148.99 393.55 148.918 393.417 148.889 393.271C148.86 393.126 148.875 392.975 148.932 392.838C148.989 392.701 149.085 392.584 149.208 392.501C149.332 392.419 149.477 392.375 149.625 392.375C149.824 392.375 150.015 392.454 150.155 392.595C150.296 392.735 150.375 392.926 150.375 393.125ZM156.375 393.875C156.523 393.875 156.668 393.831 156.792 393.749C156.915 393.666 157.011 393.549 157.068 393.412C157.125 393.275 157.14 393.124 157.111 392.979C157.082 392.833 157.01 392.7 156.905 392.595C156.8 392.49 156.667 392.418 156.521 392.389C156.376 392.36 156.225 392.375 156.088 392.432C155.951 392.489 155.834 392.585 155.751 392.708C155.669 392.832 155.625 392.977 155.625 393.125C155.625 393.324 155.704 393.515 155.845 393.655C155.985 393.796 156.176 393.875 156.375 393.875ZM162.463 393.021C162.316 393.089 162.156 393.124 161.994 393.125C161.825 393.125 161.658 393.085 161.506 393.01C161.354 392.935 161.221 392.826 161.118 392.692L160.875 392.383V397.25C160.875 398.145 160.519 399.004 159.886 399.636C159.254 400.269 158.395 400.625 157.5 400.625H148.5C147.605 400.625 146.746 400.269 146.114 399.636C145.481 399.004 145.125 398.145 145.125 397.25V392.383L144.888 392.69C144.784 392.825 144.651 392.934 144.499 393.009C144.347 393.085 144.179 393.124 144.009 393.125C143.847 393.124 143.688 393.089 143.541 393.021C143.309 392.919 143.12 392.742 143.003 392.518C142.886 392.294 142.85 392.037 142.899 391.789L144.439 383.539C144.467 383.388 144.526 383.245 144.611 383.118C144.697 382.991 144.808 382.882 144.937 382.8C145.066 382.717 145.211 382.661 145.362 382.636C145.513 382.612 145.668 382.618 145.817 382.655H145.832L150.804 384.125H155.196L160.172 382.663H160.187C160.336 382.625 160.49 382.619 160.642 382.644C160.793 382.669 160.938 382.724 161.067 382.807C161.196 382.89 161.307 382.998 161.392 383.125C161.478 383.253 161.537 383.396 161.565 383.547L163.104 391.797C163.152 392.043 163.115 392.299 162.998 392.521C162.882 392.744 162.693 392.92 162.463 393.021ZM150.117 384.704L145.626 383.384C145.597 383.378 145.568 383.375 145.539 383.375C145.452 383.375 145.368 383.406 145.301 383.462C145.234 383.517 145.188 383.595 145.172 383.681L143.633 391.931C143.617 392.013 143.629 392.099 143.668 392.174C143.706 392.249 143.769 392.308 143.845 392.343C143.922 392.378 144.008 392.386 144.09 392.366C144.172 392.346 144.244 392.299 144.296 392.233L150.117 384.704ZM160.125 391.414L155.062 384.875H150.938L145.875 391.414V397.25C145.875 397.946 146.152 398.614 146.644 399.106C147.136 399.598 147.804 399.875 148.5 399.875H152.625V398.156L151.235 396.765C151.164 396.695 151.125 396.6 151.125 396.5C151.125 396.4 151.164 396.305 151.235 396.235C151.305 396.164 151.4 396.125 151.5 396.125C151.6 396.125 151.695 396.164 151.765 396.235L153 397.469L154.235 396.235C154.305 396.164 154.4 396.125 154.5 396.125C154.6 396.125 154.695 396.164 154.765 396.235C154.836 396.305 154.875 396.4 154.875 396.5C154.875 396.6 154.836 396.695 154.765 396.765L153.375 398.156V399.875H157.5C158.196 399.875 158.864 399.598 159.356 399.106C159.848 398.614 160.125 397.946 160.125 397.25V391.414ZM162.367 391.928L160.828 383.678C160.819 383.628 160.8 383.581 160.771 383.539C160.743 383.496 160.707 383.46 160.665 383.433C160.622 383.405 160.575 383.386 160.525 383.377C160.475 383.369 160.424 383.37 160.374 383.382L155.883 384.704L161.706 392.231C161.758 392.296 161.83 392.342 161.912 392.362C161.993 392.381 162.079 392.373 162.155 392.338C162.231 392.303 162.293 392.244 162.332 392.17C162.37 392.095 162.383 392.01 162.367 391.928Z" fill="white" fill-opacity="0.21"/>
<path d="M353.375 407.125C353.375 407.273 353.331 407.418 353.249 407.542C353.166 407.665 353.049 407.761 352.912 407.818C352.775 407.875 352.624 407.89 352.479 407.861C352.333 407.832 352.2 407.76 352.095 407.655C351.99 407.55 351.918 407.417 351.889 407.271C351.86 407.126 351.875 406.975 351.932 406.838C351.989 406.701 352.085 406.584 352.208 406.501C352.332 406.419 352.477 406.375 352.625 406.375C352.824 406.375 353.015 406.454 353.155 406.595C353.296 406.735 353.375 406.926 353.375 407.125ZM359.375 407.875C359.523 407.875 359.668 407.831 359.792 407.749C359.915 407.666 360.011 407.549 360.068 407.412C360.125 407.275 360.14 407.124 360.111 406.979C360.082 406.833 360.01 406.7 359.905 406.595C359.8 406.49 359.667 406.418 359.521 406.389C359.376 406.36 359.225 406.375 359.088 406.432C358.951 406.489 358.834 406.585 358.751 406.708C358.669 406.832 358.625 406.977 358.625 407.125C358.625 407.324 358.704 407.515 358.845 407.655C358.985 407.796 359.176 407.875 359.375 407.875ZM365.463 407.021C365.316 407.089 365.156 407.124 364.994 407.125C364.825 407.125 364.658 407.085 364.506 407.01C364.354 406.935 364.221 406.826 364.118 406.692L363.875 406.383V411.25C363.875 412.145 363.519 413.004 362.886 413.636C362.254 414.269 361.395 414.625 360.5 414.625H351.5C350.605 414.625 349.746 414.269 349.114 413.636C348.481 413.004 348.125 412.145 348.125 411.25V406.383L347.888 406.69C347.784 406.825 347.651 406.934 347.499 407.009C347.347 407.085 347.179 407.124 347.009 407.125C346.847 407.124 346.688 407.089 346.541 407.021C346.309 406.919 346.12 406.742 346.003 406.518C345.886 406.294 345.85 406.037 345.899 405.789L347.439 397.539C347.467 397.388 347.526 397.245 347.611 397.118C347.697 396.991 347.808 396.882 347.937 396.8C348.066 396.717 348.211 396.661 348.362 396.636C348.513 396.612 348.668 396.618 348.817 396.655H348.832L353.804 398.125H358.196L363.172 396.663H363.187C363.336 396.625 363.49 396.619 363.642 396.644C363.793 396.669 363.938 396.724 364.067 396.807C364.196 396.89 364.307 396.998 364.392 397.125C364.478 397.253 364.537 397.396 364.565 397.547L366.104 405.797C366.152 406.043 366.115 406.299 365.998 406.521C365.882 406.744 365.693 406.92 365.463 407.021ZM353.117 398.704L348.626 397.384C348.597 397.378 348.568 397.375 348.539 397.375C348.452 397.375 348.368 397.406 348.301 397.462C348.234 397.517 348.188 397.595 348.172 397.681L346.633 405.931C346.617 406.013 346.629 406.099 346.668 406.174C346.706 406.249 346.769 406.308 346.845 406.343C346.922 406.378 347.008 406.386 347.09 406.366C347.172 406.346 347.244 406.299 347.296 406.233L353.117 398.704ZM363.125 405.414L358.063 398.875H353.938L348.875 405.414V411.25C348.875 411.946 349.152 412.614 349.644 413.106C350.136 413.598 350.804 413.875 351.5 413.875H355.625V412.156L354.235 410.765C354.164 410.695 354.125 410.6 354.125 410.5C354.125 410.4 354.164 410.305 354.235 410.235C354.305 410.164 354.4 410.125 354.5 410.125C354.6 410.125 354.695 410.164 354.765 410.235L356 411.469L357.235 410.235C357.305 410.164 357.4 410.125 357.5 410.125C357.6 410.125 357.695 410.164 357.765 410.235C357.836 410.305 357.875 410.4 357.875 410.5C357.875 410.6 357.836 410.695 357.765 410.765L356.375 412.156V413.875H360.5C361.196 413.875 361.864 413.598 362.356 413.106C362.848 412.614 363.125 411.946 363.125 411.25V405.414ZM365.368 405.928L363.828 397.678C363.819 397.628 363.8 397.581 363.771 397.539C363.743 397.496 363.707 397.46 363.665 397.433C363.622 397.405 363.575 397.386 363.525 397.377C363.475 397.369 363.424 397.37 363.374 397.382L358.883 398.704L364.706 406.231C364.758 406.296 364.83 406.342 364.912 406.362C364.993 406.381 365.079 406.373 365.155 406.338C365.231 406.303 365.293 406.244 365.332 406.17C365.37 406.095 365.383 406.01 365.368 405.928Z" fill="white" fill-opacity="0.21"/>
<path d="M271.375 277.125C271.375 277.273 271.331 277.418 271.249 277.542C271.166 277.665 271.049 277.761 270.912 277.818C270.775 277.875 270.624 277.89 270.479 277.861C270.333 277.832 270.2 277.76 270.095 277.655C269.99 277.55 269.918 277.417 269.889 277.271C269.86 277.126 269.875 276.975 269.932 276.838C269.989 276.701 270.085 276.584 270.208 276.501C270.332 276.419 270.477 276.375 270.625 276.375C270.824 276.375 271.015 276.454 271.155 276.595C271.296 276.735 271.375 276.926 271.375 277.125ZM277.375 277.875C277.523 277.875 277.668 277.831 277.792 277.749C277.915 277.666 278.011 277.549 278.068 277.412C278.125 277.275 278.14 277.124 278.111 276.979C278.082 276.833 278.01 276.7 277.905 276.595C277.8 276.49 277.667 276.418 277.521 276.389C277.376 276.36 277.225 276.375 277.088 276.432C276.951 276.489 276.834 276.585 276.751 276.708C276.669 276.832 276.625 276.977 276.625 277.125C276.625 277.324 276.704 277.515 276.845 277.655C276.985 277.796 277.176 277.875 277.375 277.875ZM283.463 277.021C283.316 277.089 283.156 277.124 282.994 277.125C282.825 277.125 282.658 277.085 282.506 277.01C282.354 276.935 282.221 276.826 282.118 276.692L281.875 276.383V281.25C281.875 282.145 281.519 283.004 280.886 283.636C280.254 284.269 279.395 284.625 278.5 284.625H269.5C268.605 284.625 267.746 284.269 267.114 283.636C266.481 283.004 266.125 282.145 266.125 281.25V276.383L265.888 276.69C265.784 276.825 265.651 276.934 265.499 277.009C265.347 277.085 265.179 277.124 265.009 277.125C264.847 277.124 264.688 277.089 264.541 277.021C264.309 276.919 264.12 276.742 264.003 276.518C263.886 276.294 263.85 276.037 263.899 275.789L265.439 267.539C265.467 267.388 265.526 267.245 265.611 267.118C265.697 266.991 265.808 266.882 265.937 266.8C266.066 266.717 266.211 266.661 266.362 266.636C266.513 266.612 266.668 266.618 266.817 266.655H266.832L271.804 268.125H276.196L281.172 266.662H281.187C281.336 266.625 281.49 266.619 281.642 266.644C281.793 266.669 281.938 266.724 282.067 266.807C282.196 266.89 282.307 266.998 282.392 267.125C282.478 267.253 282.537 267.396 282.565 267.547L284.104 275.797C284.152 276.043 284.115 276.299 283.998 276.521C283.882 276.744 283.693 276.92 283.463 277.021ZM271.117 268.704L266.626 267.384C266.597 267.378 266.568 267.375 266.539 267.375C266.452 267.375 266.368 267.406 266.301 267.462C266.234 267.517 266.188 267.595 266.172 267.681L264.632 275.931C264.617 276.013 264.629 276.099 264.668 276.174C264.706 276.249 264.769 276.308 264.845 276.343C264.922 276.378 265.008 276.386 265.09 276.366C265.172 276.346 265.244 276.299 265.296 276.232L271.117 268.704ZM281.125 275.414L276.062 268.875H271.937L266.875 275.414V281.25C266.875 281.946 267.152 282.614 267.644 283.106C268.136 283.598 268.804 283.875 269.5 283.875H273.625V282.156L272.235 280.765C272.164 280.695 272.125 280.6 272.125 280.5C272.125 280.4 272.164 280.305 272.235 280.235C272.305 280.164 272.4 280.125 272.5 280.125C272.6 280.125 272.695 280.164 272.765 280.235L274 281.469L275.235 280.235C275.305 280.164 275.4 280.125 275.5 280.125C275.6 280.125 275.695 280.164 275.765 280.235C275.836 280.305 275.875 280.4 275.875 280.5C275.875 280.6 275.836 280.695 275.765 280.765L274.375 282.156V283.875H278.5C279.196 283.875 279.864 283.598 280.356 283.106C280.848 282.614 281.125 281.946 281.125 281.25V275.414ZM283.367 275.928L281.828 267.678C281.819 267.628 281.8 267.581 281.771 267.539C281.743 267.496 281.707 267.46 281.665 267.433C281.622 267.405 281.575 267.386 281.525 267.377C281.475 267.369 281.424 267.37 281.374 267.382L276.883 268.704L282.706 276.231C282.758 276.296 282.83 276.342 282.912 276.362C282.993 276.381 283.079 276.373 283.155 276.338C283.231 276.303 283.293 276.244 283.332 276.17C283.37 276.095 283.383 276.01 283.367 275.928Z" fill="white" fill-opacity="0.21"/>
<path d="M288.375 657.125C288.375 657.273 288.331 657.418 288.249 657.542C288.166 657.665 288.049 657.761 287.912 657.818C287.775 657.875 287.624 657.89 287.479 657.861C287.333 657.832 287.2 657.76 287.095 657.655C286.99 657.55 286.918 657.417 286.889 657.271C286.86 657.126 286.875 656.975 286.932 656.838C286.989 656.701 287.085 656.584 287.208 656.501C287.332 656.419 287.477 656.375 287.625 656.375C287.824 656.375 288.015 656.454 288.155 656.595C288.296 656.735 288.375 656.926 288.375 657.125ZM294.375 657.875C294.523 657.875 294.668 657.831 294.792 657.749C294.915 657.666 295.011 657.549 295.068 657.412C295.125 657.275 295.14 657.124 295.111 656.979C295.082 656.833 295.01 656.7 294.905 656.595C294.8 656.49 294.667 656.418 294.521 656.389C294.376 656.36 294.225 656.375 294.088 656.432C293.951 656.489 293.834 656.585 293.751 656.708C293.669 656.832 293.625 656.977 293.625 657.125C293.625 657.324 293.704 657.515 293.845 657.655C293.985 657.796 294.176 657.875 294.375 657.875ZM300.463 657.021C300.316 657.089 300.156 657.124 299.994 657.125C299.825 657.125 299.658 657.085 299.506 657.01C299.354 656.935 299.221 656.826 299.118 656.692L298.875 656.383V661.25C298.875 662.145 298.519 663.004 297.886 663.636C297.254 664.269 296.395 664.625 295.5 664.625H286.5C285.605 664.625 284.746 664.269 284.114 663.636C283.481 663.004 283.125 662.145 283.125 661.25V656.383L282.888 656.69C282.784 656.825 282.651 656.934 282.499 657.009C282.347 657.085 282.179 657.124 282.009 657.125C281.847 657.124 281.688 657.089 281.541 657.021C281.309 656.919 281.12 656.742 281.003 656.518C280.886 656.294 280.85 656.037 280.899 655.789L282.439 647.539C282.467 647.388 282.526 647.245 282.611 647.118C282.697 646.991 282.808 646.882 282.937 646.8C283.066 646.717 283.211 646.661 283.362 646.636C283.513 646.612 283.668 646.618 283.817 646.655H283.832L288.804 648.125H293.196L298.172 646.663H298.187C298.336 646.625 298.49 646.619 298.642 646.644C298.793 646.669 298.938 646.724 299.067 646.807C299.196 646.89 299.307 646.998 299.392 647.125C299.478 647.253 299.537 647.396 299.565 647.547L301.104 655.797C301.152 656.043 301.115 656.299 300.998 656.521C300.882 656.744 300.693 656.92 300.463 657.021ZM288.117 648.704L283.626 647.384C283.597 647.378 283.568 647.375 283.539 647.375C283.452 647.375 283.368 647.406 283.301 647.462C283.234 647.517 283.188 647.595 283.172 647.681L281.632 655.931C281.617 656.013 281.629 656.099 281.668 656.174C281.706 656.249 281.769 656.308 281.845 656.343C281.922 656.378 282.008 656.386 282.09 656.366C282.172 656.346 282.244 656.299 282.296 656.233L288.117 648.704ZM298.125 655.414L293.062 648.875H288.937L283.875 655.414V661.25C283.875 661.946 284.152 662.614 284.644 663.106C285.136 663.598 285.804 663.875 286.5 663.875H290.625V662.156L289.235 660.765C289.164 660.695 289.125 660.6 289.125 660.5C289.125 660.4 289.164 660.305 289.235 660.235C289.305 660.164 289.4 660.125 289.5 660.125C289.6 660.125 289.695 660.164 289.765 660.235L291 661.469L292.235 660.235C292.305 660.164 292.4 660.125 292.5 660.125C292.6 660.125 292.695 660.164 292.765 660.235C292.836 660.305 292.875 660.4 292.875 660.5C292.875 660.6 292.836 660.695 292.765 660.765L291.375 662.156V663.875H295.5C296.196 663.875 296.864 663.598 297.356 663.106C297.848 662.614 298.125 661.946 298.125 661.25V655.414ZM300.367 655.928L298.828 647.678C298.819 647.628 298.8 647.581 298.771 647.539C298.743 647.496 298.707 647.46 298.665 647.433C298.622 647.405 298.575 647.386 298.525 647.377C298.475 647.369 298.424 647.37 298.374 647.382L293.883 648.704L299.706 656.231C299.758 656.296 299.83 656.342 299.912 656.362C299.993 656.381 300.079 656.373 300.155 656.338C300.231 656.303 300.293 656.244 300.332 656.17C300.37 656.095 300.383 656.01 300.367 655.928Z" fill="white" fill-opacity="0.21"/>
<path d="M115.562 345.125C115.562 345.31 115.508 345.492 115.405 345.646C115.301 345.8 115.155 345.92 114.984 345.991C114.812 346.062 114.624 346.081 114.442 346.044C114.26 346.008 114.093 345.919 113.962 345.788C113.831 345.657 113.742 345.49 113.706 345.308C113.669 345.126 113.688 344.938 113.759 344.766C113.83 344.595 113.95 344.449 114.104 344.345C114.258 344.242 114.44 344.188 114.625 344.188C114.874 344.188 115.112 344.286 115.288 344.462C115.464 344.638 115.562 344.876 115.562 345.125ZM121.375 344.188C121.19 344.188 121.008 344.242 120.854 344.345C120.7 344.449 120.58 344.595 120.509 344.766C120.438 344.938 120.419 345.126 120.456 345.308C120.492 345.49 120.581 345.657 120.712 345.788C120.843 345.919 121.01 346.008 121.192 346.044C121.374 346.081 121.562 346.062 121.734 345.991C121.905 345.92 122.051 345.8 122.155 345.646C122.258 345.492 122.312 345.31 122.312 345.125C122.312 344.876 122.214 344.638 122.038 344.462C121.862 344.286 121.624 344.188 121.375 344.188ZM127.541 345.193C127.368 345.272 127.179 345.313 126.989 345.313C126.816 345.313 126.644 345.278 126.485 345.21C126.326 345.141 126.182 345.042 126.062 344.917V349.25C126.062 350.195 125.687 351.101 125.019 351.769C124.351 352.437 123.445 352.812 122.5 352.812H113.5C112.555 352.812 111.649 352.437 110.981 351.769C110.313 351.101 109.937 350.195 109.937 349.25V344.917C109.817 345.042 109.673 345.141 109.514 345.209C109.355 345.277 109.184 345.312 109.01 345.312C108.82 345.312 108.632 345.271 108.459 345.192C108.189 345.073 107.968 344.866 107.831 344.604C107.695 344.343 107.652 344.043 107.709 343.753L109.248 335.503C109.281 335.328 109.35 335.16 109.45 335.012C109.55 334.863 109.679 334.737 109.83 334.64C109.981 334.544 110.15 334.479 110.326 334.45C110.503 334.421 110.684 334.429 110.857 334.472L110.88 334.479L115.831 335.938H120.169L125.118 334.483L125.141 334.477C125.315 334.433 125.495 334.426 125.672 334.455C125.848 334.484 126.017 334.549 126.168 334.645C126.319 334.742 126.448 334.868 126.548 335.017C126.648 335.165 126.717 335.332 126.75 335.508L128.289 343.758C128.346 344.047 128.303 344.346 128.167 344.607C128.031 344.867 127.81 345.074 127.541 345.193ZM114.801 336.807L110.579 335.563C110.555 335.557 110.53 335.556 110.506 335.561C110.482 335.565 110.459 335.574 110.439 335.588C110.418 335.602 110.399 335.62 110.385 335.641C110.371 335.662 110.361 335.686 110.357 335.712L108.817 343.962C108.809 344.003 108.815 344.046 108.835 344.083C108.854 344.121 108.885 344.15 108.924 344.168C108.962 344.185 109.005 344.189 109.046 344.179C109.087 344.169 109.123 344.146 109.149 344.113L114.801 336.807ZM124.938 349.25V343.478L119.974 337.063H116.026L111.062 343.478V349.25C111.062 349.896 111.319 350.516 111.776 350.974C112.234 351.431 112.854 351.688 113.5 351.688H117.437V350.233L116.102 348.898C116.003 348.791 115.949 348.65 115.952 348.504C115.954 348.358 116.013 348.219 116.116 348.116C116.219 348.013 116.358 347.954 116.504 347.952C116.65 347.949 116.791 348.003 116.897 348.102L118 349.204L119.102 348.102C119.209 348.003 119.35 347.949 119.496 347.952C119.642 347.954 119.781 348.013 119.884 348.116C119.987 348.219 120.046 348.358 120.048 348.504C120.051 348.65 119.997 348.791 119.898 348.898L118.562 350.233V351.688H122.5C123.146 351.688 123.766 351.431 124.224 350.974C124.681 350.516 124.938 349.896 124.938 349.25ZM127.188 343.963L125.648 335.713C125.643 335.688 125.634 335.664 125.62 335.643C125.605 335.621 125.587 335.603 125.566 335.59C125.524 335.564 125.474 335.555 125.426 335.564L121.207 336.805L126.862 344.117C126.889 344.148 126.925 344.168 126.965 344.177C127.005 344.185 127.046 344.18 127.083 344.162C127.12 344.145 127.15 344.116 127.169 344.08C127.187 344.044 127.194 344.003 127.188 343.963Z" fill="white" fill-opacity="0.21"/>
<path d="M33.5625 215.125C33.5625 215.31 33.5075 215.492 33.4045 215.646C33.3015 215.8 33.1551 215.92 32.9838 215.991C32.8125 216.062 32.624 216.081 32.4421 216.044C32.2603 216.008 32.0932 215.919 31.9621 215.788C31.831 215.657 31.7417 215.49 31.7055 215.308C31.6693 215.126 31.6879 214.938 31.7589 214.766C31.8298 214.595 31.95 214.449 32.1042 214.345C32.2583 214.242 32.4396 214.187 32.625 214.187C32.8736 214.187 33.1121 214.286 33.2879 214.462C33.4637 214.638 33.5625 214.876 33.5625 215.125ZM39.375 214.187C39.1896 214.187 39.0083 214.242 38.8542 214.345C38.7 214.449 38.5798 214.595 38.5089 214.766C38.4379 214.938 38.4193 215.126 38.4555 215.308C38.4917 215.49 38.581 215.657 38.7121 215.788C38.8432 215.919 39.0103 216.008 39.1921 216.044C39.374 216.081 39.5625 216.062 39.7338 215.991C39.9051 215.92 40.0515 215.8 40.1545 215.646C40.2575 215.492 40.3125 215.31 40.3125 215.125C40.3125 214.876 40.2137 214.638 40.0379 214.462C39.8621 214.286 39.6236 214.187 39.375 214.187ZM45.5409 215.192C45.3676 215.272 45.1793 215.313 44.9888 215.313C44.8156 215.313 44.6443 215.278 44.4852 215.21C44.326 215.141 44.1823 215.042 44.0625 214.917V219.25C44.0625 220.195 43.6872 221.101 43.0191 221.769C42.351 222.437 41.4448 222.812 40.5 222.812H31.5C30.5552 222.812 29.649 222.437 28.9809 221.769C28.3128 221.101 27.9375 220.195 27.9375 219.25V214.917C27.8174 215.042 27.6735 215.141 27.5142 215.209C27.3549 215.277 27.1835 215.312 27.0103 215.312C26.82 215.312 26.6321 215.271 26.4591 215.192C26.1891 215.073 25.9676 214.866 25.8312 214.604C25.6948 214.343 25.6517 214.043 25.7091 213.753L27.2484 205.503C27.2814 205.328 27.3501 205.16 27.4501 205.012C27.5501 204.863 27.6795 204.737 27.8301 204.64C27.9808 204.544 28.1497 204.479 28.3263 204.45C28.5029 204.421 28.6836 204.429 28.8572 204.472L28.8797 204.479L33.8306 205.937H38.1694L43.1184 204.483L43.1409 204.477C43.3146 204.433 43.4952 204.426 43.6719 204.455C43.8485 204.484 44.0173 204.549 44.168 204.645C44.3187 204.742 44.448 204.868 44.548 205.016C44.6481 205.165 44.7167 205.332 44.7497 205.508L46.2891 213.758C46.3458 214.047 46.3026 214.346 46.1666 214.607C46.0306 214.867 45.81 215.074 45.5409 215.192ZM32.8013 206.807L28.5788 205.562C28.555 205.557 28.5303 205.556 28.5063 205.561C28.4823 205.565 28.4594 205.574 28.4391 205.588C28.4176 205.602 28.3992 205.62 28.385 205.641C28.3708 205.662 28.3612 205.686 28.3566 205.712L26.8172 213.962C26.8092 214.003 26.8154 214.046 26.8347 214.083C26.854 214.121 26.8854 214.15 26.9237 214.168C26.962 214.185 27.0051 214.189 27.0459 214.179C27.0868 214.169 27.1232 214.146 27.1491 214.112L32.8013 206.807ZM42.9375 219.25V213.478L37.9744 207.062H34.0256L29.0625 213.478V219.25C29.0625 219.896 29.3193 220.516 29.7764 220.974C30.2336 221.431 30.8535 221.687 31.5 221.687H35.4375V220.232L34.1025 218.897C34.0031 218.791 33.9491 218.65 33.9516 218.504C33.9542 218.358 34.0132 218.219 34.1163 218.116C34.2193 218.013 34.3584 217.954 34.5041 217.952C34.6498 217.949 34.7909 218.003 34.8975 218.102L36 219.204L37.1025 218.102C37.2091 218.003 37.3502 217.949 37.4959 217.952C37.6416 217.954 37.7807 218.013 37.8837 218.116C37.9868 218.219 38.0458 218.358 38.0484 218.504C38.051 218.65 37.9969 218.791 37.8975 218.897L36.5625 220.232V221.687H40.5C41.1465 221.687 41.7665 221.431 42.2236 220.974C42.6807 220.516 42.9375 219.896 42.9375 219.25ZM45.1875 213.962L43.6481 205.712C43.6434 205.688 43.6337 205.664 43.6195 205.643C43.6053 205.621 43.587 205.603 43.5656 205.59C43.5239 205.564 43.474 205.555 43.4259 205.564L39.2072 206.805L44.8622 214.117C44.8892 214.148 44.9253 214.168 44.9651 214.177C45.0049 214.185 45.0463 214.18 45.083 214.162C45.1197 214.145 45.1497 214.116 45.1686 214.08C45.1874 214.044 45.1941 214.003 45.1875 213.962Z" fill="white" fill-opacity="0.21"/>
<path d="M50.5625 595.125C50.5625 595.31 50.5075 595.492 50.4045 595.646C50.3015 595.8 50.1551 595.92 49.9838 595.991C49.8125 596.062 49.624 596.081 49.4421 596.044C49.2603 596.008 49.0932 595.919 48.9621 595.788C48.831 595.657 48.7417 595.49 48.7055 595.308C48.6693 595.126 48.6879 594.938 48.7589 594.766C48.8298 594.595 48.95 594.449 49.1042 594.345C49.2583 594.242 49.4396 594.187 49.625 594.187C49.8736 594.187 50.1121 594.286 50.2879 594.462C50.4637 594.638 50.5625 594.876 50.5625 595.125ZM56.375 594.187C56.1896 594.187 56.0083 594.242 55.8542 594.345C55.7 594.449 55.5798 594.595 55.5089 594.766C55.4379 594.938 55.4193 595.126 55.4555 595.308C55.4917 595.49 55.581 595.657 55.7121 595.788C55.8432 595.919 56.0103 596.008 56.1921 596.044C56.374 596.081 56.5625 596.062 56.7338 595.991C56.9051 595.92 57.0515 595.8 57.1545 595.646C57.2575 595.492 57.3125 595.31 57.3125 595.125C57.3125 594.876 57.2137 594.638 57.0379 594.462C56.8621 594.286 56.6236 594.187 56.375 594.187ZM62.5409 595.192C62.3676 595.272 62.1793 595.313 61.9888 595.313C61.8156 595.313 61.6443 595.278 61.4852 595.21C61.326 595.141 61.1823 595.042 61.0625 594.917V599.25C61.0625 600.195 60.6872 601.101 60.0191 601.769C59.351 602.437 58.4448 602.812 57.5 602.812H48.5C47.5552 602.812 46.649 602.437 45.9809 601.769C45.3128 601.101 44.9375 600.195 44.9375 599.25V594.917C44.8174 595.042 44.6735 595.141 44.5142 595.209C44.3549 595.277 44.1835 595.312 44.0103 595.312C43.82 595.312 43.6321 595.271 43.4591 595.192C43.1891 595.073 42.9676 594.866 42.8312 594.604C42.6948 594.343 42.6517 594.043 42.7091 593.753L44.2484 585.503C44.2814 585.328 44.3501 585.16 44.4501 585.012C44.5501 584.863 44.6795 584.737 44.8301 584.64C44.9808 584.544 45.1497 584.479 45.3263 584.45C45.5029 584.421 45.6836 584.429 45.8572 584.472L45.8797 584.479L50.8306 585.937H55.1694L60.1184 584.483L60.1409 584.477C60.3146 584.433 60.4952 584.426 60.6719 584.455C60.8485 584.484 61.0173 584.549 61.168 584.645C61.3187 584.742 61.448 584.868 61.548 585.016C61.6481 585.165 61.7167 585.332 61.7497 585.508L63.2891 593.758C63.3458 594.047 63.3026 594.346 63.1666 594.607C63.0306 594.867 62.81 595.074 62.5409 595.192ZM49.8013 586.807L45.5788 585.562C45.555 585.557 45.5303 585.556 45.5063 585.561C45.4823 585.565 45.4594 585.574 45.4391 585.588C45.4176 585.602 45.3992 585.62 45.385 585.641C45.3708 585.662 45.3612 585.686 45.3566 585.712L43.8172 593.962C43.8092 594.003 43.8154 594.046 43.8347 594.083C43.854 594.121 43.8854 594.15 43.9237 594.168C43.962 594.185 44.0051 594.189 44.0459 594.179C44.0868 594.169 44.1232 594.146 44.1491 594.112L49.8013 586.807ZM59.9375 599.25V593.478L54.9744 587.062H51.0256L46.0625 593.478V599.25C46.0625 599.896 46.3193 600.516 46.7764 600.974C47.2336 601.431 47.8535 601.687 48.5 601.687H52.4375V600.232L51.1025 598.897C51.0031 598.791 50.9491 598.65 50.9516 598.504C50.9542 598.358 51.0132 598.219 51.1163 598.116C51.2193 598.013 51.3584 597.954 51.5041 597.952C51.6498 597.949 51.7909 598.003 51.8975 598.102L53 599.204L54.1025 598.102C54.2091 598.003 54.3502 597.949 54.4959 597.952C54.6416 597.954 54.7807 598.013 54.8837 598.116C54.9868 598.219 55.0458 598.358 55.0484 598.504C55.051 598.65 54.9969 598.791 54.8975 598.897L53.5625 600.232V601.687H57.5C58.1465 601.687 58.7665 601.431 59.2236 600.974C59.6807 600.516 59.9375 599.896 59.9375 599.25ZM62.1875 593.962L60.6481 585.712C60.6434 585.688 60.6337 585.664 60.6195 585.643C60.6053 585.621 60.587 585.603 60.5656 585.59C60.5239 585.564 60.474 585.555 60.4259 585.564L56.2072 586.805L61.8622 594.117C61.8892 594.148 61.9253 594.168 61.9651 594.177C62.0049 594.185 62.0463 594.18 62.083 594.162C62.1197 594.145 62.1497 594.116 62.1686 594.08C62.1874 594.044 62.1941 594.003 62.1875 593.962Z" fill="white" fill-opacity="0.21"/>
<path d="M103.562 218.125C103.562 218.31 103.508 218.492 103.405 218.646C103.301 218.8 103.155 218.92 102.984 218.991C102.812 219.062 102.624 219.081 102.442 219.044C102.26 219.008 102.093 218.919 101.962 218.788C101.831 218.657 101.742 218.49 101.706 218.308C101.669 218.126 101.688 217.938 101.759 217.766C101.83 217.595 101.95 217.449 102.104 217.345C102.258 217.242 102.44 217.187 102.625 217.187C102.874 217.187 103.112 217.286 103.288 217.462C103.464 217.638 103.562 217.876 103.562 218.125ZM109.375 217.187C109.19 217.187 109.008 217.242 108.854 217.345C108.7 217.449 108.58 217.595 108.509 217.766C108.438 217.938 108.419 218.126 108.456 218.308C108.492 218.49 108.581 218.657 108.712 218.788C108.843 218.919 109.01 219.008 109.192 219.044C109.374 219.081 109.562 219.062 109.734 218.991C109.905 218.92 110.051 218.8 110.155 218.646C110.258 218.492 110.312 218.31 110.312 218.125C110.312 217.876 110.214 217.638 110.038 217.462C109.862 217.286 109.624 217.187 109.375 217.187ZM115.541 218.192C115.368 218.272 115.179 218.313 114.989 218.313C114.816 218.313 114.644 218.278 114.485 218.21C114.326 218.141 114.182 218.042 114.062 217.917V222.25C114.062 223.195 113.687 224.101 113.019 224.769C112.351 225.437 111.445 225.812 110.5 225.812H101.5C100.555 225.812 99.649 225.437 98.9809 224.769C98.3128 224.101 97.9375 223.195 97.9375 222.25V217.917C97.8174 218.042 97.6734 218.141 97.5141 218.209C97.3549 218.277 97.1835 218.312 97.0103 218.312C96.82 218.312 96.6321 218.271 96.4591 218.192C96.189 218.073 95.9676 217.866 95.8312 217.604C95.6948 217.343 95.6517 217.043 95.7091 216.753L97.2484 208.503C97.2814 208.328 97.3501 208.16 97.4501 208.012C97.5501 207.863 97.6795 207.737 97.8301 207.64C97.9808 207.544 98.1496 207.479 98.3263 207.45C98.5029 207.421 98.6836 207.429 98.8572 207.472L98.8797 207.479L103.831 208.937H108.169L113.118 207.483L113.141 207.477C113.315 207.433 113.495 207.426 113.672 207.455C113.848 207.484 114.017 207.549 114.168 207.645C114.319 207.742 114.448 207.868 114.548 208.016C114.648 208.165 114.717 208.332 114.75 208.508L116.289 216.758C116.346 217.047 116.303 217.346 116.167 217.607C116.031 217.867 115.81 218.074 115.541 218.192ZM102.801 209.807L98.5787 208.562C98.555 208.557 98.5303 208.556 98.5063 208.561C98.4822 208.565 98.4594 208.574 98.4391 208.588C98.4176 208.602 98.3992 208.62 98.385 208.641C98.3708 208.662 98.3611 208.686 98.3566 208.712L96.8172 216.962C96.8092 217.003 96.8154 217.046 96.8347 217.083C96.854 217.121 96.8853 217.15 96.9237 217.168C96.962 217.185 97.0051 217.189 97.0459 217.179C97.0868 217.169 97.1231 217.146 97.1491 217.112L102.801 209.807ZM112.938 222.25V216.478L107.974 210.062H104.026L99.0625 216.478V222.25C99.0625 222.896 99.3193 223.516 99.7764 223.974C100.234 224.431 100.854 224.687 101.5 224.687H105.437V223.232L104.102 221.897C104.003 221.791 103.949 221.65 103.952 221.504C103.954 221.358 104.013 221.219 104.116 221.116C104.219 221.013 104.358 220.954 104.504 220.952C104.65 220.949 104.791 221.003 104.897 221.102L106 222.204L107.102 221.102C107.209 221.003 107.35 220.949 107.496 220.952C107.642 220.954 107.781 221.013 107.884 221.116C107.987 221.219 108.046 221.358 108.048 221.504C108.051 221.65 107.997 221.791 107.898 221.897L106.562 223.232V224.687H110.5C111.146 224.687 111.766 224.431 112.224 223.974C112.681 223.516 112.938 222.896 112.938 222.25ZM115.188 216.962L113.648 208.712C113.643 208.688 113.634 208.664 113.62 208.643C113.605 208.621 113.587 208.603 113.566 208.59C113.524 208.564 113.474 208.555 113.426 208.564L109.207 209.805L114.862 217.117C114.889 217.148 114.925 217.168 114.965 217.177C115.005 217.185 115.046 217.18 115.083 217.162C115.12 217.145 115.15 217.116 115.169 217.08C115.187 217.044 115.194 217.003 115.188 216.962Z" fill="white" fill-opacity="0.21"/>
<path d="M21.5625 88.125C21.5625 88.3104 21.5075 88.4917 21.4045 88.6458C21.3015 88.8 21.1551 88.9202 20.9838 88.9911C20.8125 89.0621 20.624 89.0807 20.4421 89.0445C20.2603 89.0083 20.0932 88.919 19.9621 88.7879C19.831 88.6568 19.7417 88.4898 19.7055 88.3079C19.6693 88.126 19.6879 87.9375 19.7589 87.7662C19.8298 87.5949 19.95 87.4485 20.1042 87.3455C20.2583 87.2425 20.4396 87.1875 20.625 87.1875C20.8736 87.1875 21.1121 87.2863 21.2879 87.4621C21.4637 87.6379 21.5625 87.8764 21.5625 88.125ZM27.375 87.1875C27.1896 87.1875 27.0083 87.2425 26.8542 87.3455C26.7 87.4485 26.5798 87.5949 26.5089 87.7662C26.4379 87.9375 26.4193 88.126 26.4555 88.3079C26.4917 88.4898 26.581 88.6568 26.7121 88.7879C26.8432 88.919 27.0103 89.0083 27.1921 89.0445C27.374 89.0807 27.5625 89.0621 27.7338 88.9911C27.9051 88.9202 28.0515 88.8 28.1545 88.6458C28.2575 88.4917 28.3125 88.3104 28.3125 88.125C28.3125 87.8764 28.2137 87.6379 28.0379 87.4621C27.8621 87.2863 27.6236 87.1875 27.375 87.1875ZM33.5409 88.1925C33.3676 88.2718 33.1793 88.313 32.9888 88.3134C32.8156 88.3131 32.6443 88.2778 32.4852 88.2096C32.326 88.1415 32.1823 88.0419 32.0625 87.9169V92.25C32.0625 93.1948 31.6872 94.101 31.0191 94.7691C30.351 95.4372 29.4448 95.8125 28.5 95.8125H19.5C18.5552 95.8125 17.649 95.4372 16.9809 94.7691C16.3128 94.101 15.9375 93.1948 15.9375 92.25V87.9169C15.8174 88.0417 15.6735 88.141 15.5142 88.209C15.3549 88.277 15.1835 88.3122 15.0103 88.3125C14.82 88.312 14.6321 88.2707 14.4591 88.1916C14.1891 88.073 13.9676 87.8659 13.8312 87.6044C13.6948 87.3429 13.6517 87.0427 13.7091 86.7534L15.2484 78.5034C15.2814 78.3275 15.3501 78.1602 15.4501 78.0118C15.5501 77.8634 15.6795 77.737 15.8301 77.6404C15.9808 77.5438 16.1497 77.4791 16.3263 77.4502C16.5029 77.4212 16.6836 77.4287 16.8572 77.4722L16.8797 77.4787L21.8306 78.9375H26.1694L31.1184 77.4834L31.1409 77.4769C31.3146 77.4334 31.4952 77.4259 31.6719 77.4548C31.8485 77.4838 32.0173 77.5485 32.168 77.6451C32.3187 77.7417 32.448 77.8681 32.548 78.0165C32.6481 78.1649 32.7167 78.3322 32.7497 78.5081L34.2891 86.7581C34.3458 87.0466 34.3026 87.3458 34.1666 87.6065C34.0306 87.8672 33.81 88.0739 33.5409 88.1925ZM20.8013 79.8066L16.5788 78.5625C16.555 78.5569 16.5303 78.5563 16.5063 78.5606C16.4823 78.565 16.4594 78.5742 16.4391 78.5878C16.4176 78.6017 16.3992 78.6199 16.385 78.6412C16.3708 78.6624 16.3612 78.6864 16.3566 78.7116L14.8172 86.9616C14.8092 87.0029 14.8154 87.0457 14.8347 87.0831C14.854 87.1205 14.8854 87.1503 14.9237 87.1678C14.962 87.1852 15.0051 87.1892 15.0459 87.1792C15.0868 87.1692 15.1232 87.1457 15.1491 87.1125L20.8013 79.8066ZM30.9375 92.25V86.4778L25.9744 80.0625H22.0256L17.0625 86.4778V92.25C17.0625 92.8965 17.3193 93.5164 17.7764 93.9736C18.2336 94.4307 18.8535 94.6875 19.5 94.6875H23.4375V93.2325L22.1025 91.8975C22.0031 91.7909 21.9491 91.6498 21.9516 91.5041C21.9542 91.3584 22.0132 91.2193 22.1163 91.1163C22.2193 91.0132 22.3584 90.9542 22.5041 90.9516C22.6498 90.949 22.7909 91.0031 22.8975 91.1025L24 92.2041L25.1025 91.1025C25.2091 91.0031 25.3502 90.949 25.4959 90.9516C25.6416 90.9542 25.7807 91.0132 25.8837 91.1163C25.9868 91.2193 26.0458 91.3584 26.0484 91.5041C26.051 91.6498 25.9969 91.7909 25.8975 91.8975L24.5625 93.2325V94.6875H28.5C29.1465 94.6875 29.7665 94.4307 30.2236 93.9736C30.6807 93.5164 30.9375 92.8965 30.9375 92.25ZM33.1875 86.9625L31.6481 78.7125C31.6434 78.6875 31.6337 78.6637 31.6195 78.6426C31.6053 78.6215 31.587 78.6035 31.5656 78.5897C31.5239 78.5639 31.474 78.5549 31.4259 78.5644L27.2072 79.8047L32.8622 87.1172C32.8892 87.1476 32.9253 87.1684 32.9651 87.1765C33.0049 87.1846 33.0463 87.1795 33.083 87.1621C33.1197 87.1446 33.1497 87.1157 33.1686 87.0797C33.1874 87.0437 33.1941 87.0026 33.1875 86.9625Z" fill="white" fill-opacity="0.21"/>
<path d="M38.5625 468.125C38.5625 468.31 38.5075 468.492 38.4045 468.646C38.3015 468.8 38.1551 468.92 37.9838 468.991C37.8125 469.062 37.624 469.081 37.4421 469.044C37.2603 469.008 37.0932 468.919 36.9621 468.788C36.831 468.657 36.7417 468.49 36.7055 468.308C36.6693 468.126 36.6879 467.938 36.7589 467.766C36.8298 467.595 36.95 467.449 37.1042 467.345C37.2583 467.242 37.4396 467.187 37.625 467.187C37.8736 467.187 38.1121 467.286 38.2879 467.462C38.4637 467.638 38.5625 467.876 38.5625 468.125ZM44.375 467.187C44.1896 467.187 44.0083 467.242 43.8542 467.345C43.7 467.449 43.5798 467.595 43.5089 467.766C43.4379 467.938 43.4193 468.126 43.4555 468.308C43.4917 468.49 43.581 468.657 43.7121 468.788C43.8432 468.919 44.0103 469.008 44.1921 469.044C44.374 469.081 44.5625 469.062 44.7338 468.991C44.9051 468.92 45.0515 468.8 45.1545 468.646C45.2575 468.492 45.3125 468.31 45.3125 468.125C45.3125 467.876 45.2137 467.638 45.0379 467.462C44.8621 467.286 44.6236 467.187 44.375 467.187ZM50.5409 468.192C50.3676 468.272 50.1793 468.313 49.9888 468.313C49.8156 468.313 49.6443 468.278 49.4852 468.21C49.326 468.141 49.1823 468.042 49.0625 467.917V472.25C49.0625 473.195 48.6872 474.101 48.0191 474.769C47.351 475.437 46.4448 475.812 45.5 475.812H36.5C35.5552 475.812 34.649 475.437 33.9809 474.769C33.3128 474.101 32.9375 473.195 32.9375 472.25V467.917C32.8174 468.042 32.6735 468.141 32.5142 468.209C32.3549 468.277 32.1835 468.312 32.0103 468.312C31.82 468.312 31.6321 468.271 31.4591 468.192C31.1891 468.073 30.9676 467.866 30.8312 467.604C30.6948 467.343 30.6517 467.043 30.7091 466.753L32.2484 458.503C32.2814 458.328 32.3501 458.16 32.4501 458.012C32.5501 457.863 32.6795 457.737 32.8301 457.64C32.9808 457.544 33.1497 457.479 33.3263 457.45C33.5029 457.421 33.6836 457.429 33.8572 457.472L33.8797 457.479L38.8306 458.937H43.1694L48.1184 457.483L48.1409 457.477C48.3146 457.433 48.4952 457.426 48.6719 457.455C48.8485 457.484 49.0173 457.549 49.168 457.645C49.3187 457.742 49.448 457.868 49.548 458.016C49.6481 458.165 49.7167 458.332 49.7497 458.508L51.2891 466.758C51.3458 467.047 51.3026 467.346 51.1666 467.607C51.0306 467.867 50.81 468.074 50.5409 468.192ZM37.8013 459.807L33.5788 458.562C33.555 458.557 33.5303 458.556 33.5063 458.561C33.4823 458.565 33.4594 458.574 33.4391 458.588C33.4176 458.602 33.3992 458.62 33.385 458.641C33.3708 458.662 33.3612 458.686 33.3566 458.712L31.8172 466.962C31.8092 467.003 31.8154 467.046 31.8347 467.083C31.854 467.121 31.8854 467.15 31.9237 467.168C31.962 467.185 32.0051 467.189 32.0459 467.179C32.0868 467.169 32.1232 467.146 32.1491 467.112L37.8013 459.807ZM47.9375 472.25V466.478L42.9744 460.062H39.0256L34.0625 466.478V472.25C34.0625 472.896 34.3193 473.516 34.7764 473.974C35.2336 474.431 35.8535 474.687 36.5 474.687H40.4375V473.232L39.1025 471.897C39.0031 471.791 38.9491 471.65 38.9516 471.504C38.9542 471.358 39.0132 471.219 39.1163 471.116C39.2193 471.013 39.3584 470.954 39.5041 470.952C39.6498 470.949 39.7909 471.003 39.8975 471.102L41 472.204L42.1025 471.102C42.2091 471.003 42.3502 470.949 42.4959 470.952C42.6416 470.954 42.7807 471.013 42.8837 471.116C42.9868 471.219 43.0458 471.358 43.0484 471.504C43.051 471.65 42.9969 471.791 42.8975 471.897L41.5625 473.232V474.687H45.5C46.1465 474.687 46.7665 474.431 47.2236 473.974C47.6807 473.516 47.9375 472.896 47.9375 472.25ZM50.1875 466.962L48.6481 458.712C48.6434 458.688 48.6337 458.664 48.6195 458.643C48.6053 458.621 48.587 458.603 48.5656 458.59C48.5239 458.564 48.474 458.555 48.4259 458.564L44.2072 459.805L49.8622 467.117C49.8892 467.148 49.9253 467.168 49.9651 467.177C50.0049 467.185 50.0463 467.18 50.083 467.162C50.1197 467.145 50.1497 467.116 50.1686 467.08C50.1874 467.044 50.1941 467.003 50.1875 466.962Z" fill="white" fill-opacity="0.21"/>
<path d="M300.562 167.125C300.562 167.31 300.508 167.492 300.405 167.646C300.301 167.8 300.155 167.92 299.984 167.991C299.812 168.062 299.624 168.081 299.442 168.044C299.26 168.008 299.093 167.919 298.962 167.788C298.831 167.657 298.742 167.49 298.706 167.308C298.669 167.126 298.688 166.938 298.759 166.766C298.83 166.595 298.95 166.449 299.104 166.345C299.258 166.242 299.44 166.187 299.625 166.187C299.874 166.187 300.112 166.286 300.288 166.462C300.464 166.638 300.562 166.876 300.562 167.125ZM306.375 166.187C306.19 166.187 306.008 166.242 305.854 166.345C305.7 166.449 305.58 166.595 305.509 166.766C305.438 166.938 305.419 167.126 305.456 167.308C305.492 167.49 305.581 167.657 305.712 167.788C305.843 167.919 306.01 168.008 306.192 168.044C306.374 168.081 306.562 168.062 306.734 167.991C306.905 167.92 307.051 167.8 307.155 167.646C307.258 167.492 307.312 167.31 307.312 167.125C307.312 166.876 307.214 166.638 307.038 166.462C306.862 166.286 306.624 166.187 306.375 166.187ZM312.541 167.192C312.368 167.272 312.179 167.313 311.989 167.313C311.816 167.313 311.644 167.278 311.485 167.21C311.326 167.141 311.182 167.042 311.062 166.917V171.25C311.062 172.195 310.687 173.101 310.019 173.769C309.351 174.437 308.445 174.812 307.5 174.812H298.5C297.555 174.812 296.649 174.437 295.981 173.769C295.313 173.101 294.937 172.195 294.937 171.25V166.917C294.817 167.042 294.673 167.141 294.514 167.209C294.355 167.277 294.184 167.312 294.01 167.312C293.82 167.312 293.632 167.271 293.459 167.192C293.189 167.073 292.968 166.866 292.831 166.604C292.695 166.343 292.652 166.043 292.709 165.753L294.248 157.503C294.281 157.328 294.35 157.16 294.45 157.012C294.55 156.863 294.679 156.737 294.83 156.64C294.981 156.544 295.15 156.479 295.326 156.45C295.503 156.421 295.684 156.429 295.857 156.472L295.88 156.479L300.831 157.937H305.169L310.118 156.483L310.141 156.477C310.315 156.433 310.495 156.426 310.672 156.455C310.848 156.484 311.017 156.549 311.168 156.645C311.319 156.742 311.448 156.868 311.548 157.016C311.648 157.165 311.717 157.332 311.75 157.508L313.289 165.758C313.346 166.047 313.303 166.346 313.167 166.607C313.031 166.867 312.81 167.074 312.541 167.192ZM299.801 158.807L295.579 157.562C295.555 157.557 295.53 157.556 295.506 157.561C295.482 157.565 295.459 157.574 295.439 157.588C295.418 157.602 295.399 157.62 295.385 157.641C295.371 157.662 295.361 157.686 295.357 157.712L293.817 165.962C293.809 166.003 293.815 166.046 293.835 166.083C293.854 166.121 293.885 166.15 293.924 166.168C293.962 166.185 294.005 166.189 294.046 166.179C294.087 166.169 294.123 166.146 294.149 166.112L299.801 158.807ZM309.938 171.25V165.478L304.974 159.062H301.026L296.062 165.478V171.25C296.062 171.896 296.319 172.516 296.776 172.974C297.234 173.431 297.854 173.687 298.5 173.687H302.437V172.232L301.102 170.897C301.003 170.791 300.949 170.65 300.952 170.504C300.954 170.358 301.013 170.219 301.116 170.116C301.219 170.013 301.358 169.954 301.504 169.952C301.65 169.949 301.791 170.003 301.897 170.102L303 171.204L304.102 170.102C304.209 170.003 304.35 169.949 304.496 169.952C304.642 169.954 304.781 170.013 304.884 170.116C304.987 170.219 305.046 170.358 305.048 170.504C305.051 170.65 304.997 170.791 304.898 170.897L303.562 172.232V173.687H307.5C308.146 173.687 308.766 173.431 309.224 172.974C309.681 172.516 309.938 171.896 309.938 171.25ZM312.188 165.962L310.648 157.712C310.643 157.688 310.634 157.664 310.62 157.643C310.605 157.621 310.587 157.603 310.566 157.59C310.524 157.564 310.474 157.555 310.426 157.564L306.207 158.805L311.862 166.117C311.889 166.148 311.925 166.168 311.965 166.177C312.005 166.185 312.046 166.18 312.083 166.162C312.12 166.145 312.15 166.116 312.169 166.08C312.187 166.044 312.194 166.003 312.188 165.962Z" fill="white" fill-opacity="0.21"/>
<path d="M218.562 37.125C218.562 37.3104 218.508 37.4917 218.405 37.6458C218.301 37.8 218.155 37.9202 217.984 37.9911C217.812 38.0621 217.624 38.0807 217.442 38.0445C217.26 38.0083 217.093 37.919 216.962 37.7879C216.831 37.6568 216.742 37.4898 216.706 37.3079C216.669 37.126 216.688 36.9375 216.759 36.7662C216.83 36.5949 216.95 36.4485 217.104 36.3455C217.258 36.2425 217.44 36.1875 217.625 36.1875C217.874 36.1875 218.112 36.2863 218.288 36.4621C218.464 36.6379 218.562 36.8764 218.562 37.125ZM224.375 36.1875C224.19 36.1875 224.008 36.2425 223.854 36.3455C223.7 36.4485 223.58 36.5949 223.509 36.7662C223.438 36.9375 223.419 37.126 223.456 37.3079C223.492 37.4898 223.581 37.6568 223.712 37.7879C223.843 37.919 224.01 38.0083 224.192 38.0445C224.374 38.0807 224.562 38.0621 224.734 37.9911C224.905 37.9202 225.051 37.8 225.155 37.6458C225.258 37.4917 225.312 37.3104 225.312 37.125C225.312 36.8764 225.214 36.6379 225.038 36.4621C224.862 36.2863 224.624 36.1875 224.375 36.1875ZM230.541 37.1925C230.368 37.2718 230.179 37.313 229.989 37.3134C229.816 37.3131 229.644 37.2778 229.485 37.2096C229.326 37.1415 229.182 37.0419 229.062 36.9169V41.25C229.062 42.1948 228.687 43.101 228.019 43.7691C227.351 44.4372 226.445 44.8125 225.5 44.8125H216.5C215.555 44.8125 214.649 44.4372 213.981 43.7691C213.313 43.101 212.937 42.1948 212.937 41.25V36.9169C212.817 37.0417 212.673 37.141 212.514 37.209C212.355 37.277 212.184 37.3122 212.01 37.3125C211.82 37.312 211.632 37.2707 211.459 37.1916C211.189 37.073 210.968 36.8659 210.831 36.6044C210.695 36.3429 210.652 36.0427 210.709 35.7534L212.248 27.5034C212.281 27.3275 212.35 27.1602 212.45 27.0118C212.55 26.8634 212.679 26.737 212.83 26.6404C212.981 26.5438 213.15 26.4791 213.326 26.4502C213.503 26.4212 213.684 26.4287 213.857 26.4722L213.88 26.4787L218.831 27.9375H223.169L228.118 26.4834L228.141 26.4769C228.315 26.4334 228.495 26.4259 228.672 26.4548C228.848 26.4838 229.017 26.5485 229.168 26.6451C229.319 26.7417 229.448 26.8681 229.548 27.0165C229.648 27.1649 229.717 27.3322 229.75 27.5081L231.289 35.7581C231.346 36.0466 231.303 36.3458 231.167 36.6065C231.031 36.8672 230.81 37.0739 230.541 37.1925ZM217.801 28.8066L213.579 27.5625C213.555 27.5569 213.53 27.5563 213.506 27.5606C213.482 27.565 213.459 27.5742 213.439 27.5878C213.418 27.6017 213.399 27.6199 213.385 27.6412C213.371 27.6624 213.361 27.6864 213.357 27.7116L211.817 35.9616C211.809 36.0029 211.815 36.0457 211.835 36.0831C211.854 36.1205 211.885 36.1503 211.924 36.1678C211.962 36.1852 212.005 36.1892 212.046 36.1792C212.087 36.1692 212.123 36.1457 212.149 36.1125L217.801 28.8066ZM227.938 41.25V35.4778L222.974 29.0625H219.026L214.062 35.4778V41.25C214.062 41.8965 214.319 42.5164 214.776 42.9736C215.234 43.4307 215.854 43.6875 216.5 43.6875H220.437V42.2325L219.102 40.8975C219.003 40.7909 218.949 40.6498 218.952 40.5041C218.954 40.3584 219.013 40.2193 219.116 40.1163C219.219 40.0132 219.358 39.9542 219.504 39.9516C219.65 39.949 219.791 40.0031 219.897 40.1025L221 41.2041L222.102 40.1025C222.209 40.0031 222.35 39.949 222.496 39.9516C222.642 39.9542 222.781 40.0132 222.884 40.1163C222.987 40.2193 223.046 40.3584 223.048 40.5041C223.051 40.6498 222.997 40.7909 222.898 40.8975L221.562 42.2325V43.6875H225.5C226.146 43.6875 226.766 43.4307 227.224 42.9736C227.681 42.5164 227.938 41.8965 227.938 41.25ZM230.188 35.9625L228.648 27.7125C228.643 27.6875 228.634 27.6637 228.62 27.6426C228.605 27.6215 228.587 27.6035 228.566 27.5897C228.524 27.5639 228.474 27.5549 228.426 27.5644L224.207 28.8047L229.862 36.1172C229.889 36.1476 229.925 36.1684 229.965 36.1765C230.005 36.1846 230.046 36.1795 230.083 36.1621C230.12 36.1446 230.15 36.1157 230.169 36.0797C230.187 36.0437 230.194 36.0026 230.188 35.9625Z" fill="white" fill-opacity="0.21"/>
<path d="M235.562 417.125C235.562 417.31 235.508 417.492 235.405 417.646C235.301 417.8 235.155 417.92 234.984 417.991C234.812 418.062 234.624 418.081 234.442 418.044C234.26 418.008 234.093 417.919 233.962 417.788C233.831 417.657 233.742 417.49 233.706 417.308C233.669 417.126 233.688 416.938 233.759 416.766C233.83 416.595 233.95 416.449 234.104 416.345C234.258 416.242 234.44 416.187 234.625 416.187C234.874 416.187 235.112 416.286 235.288 416.462C235.464 416.638 235.562 416.876 235.562 417.125ZM241.375 416.187C241.19 416.187 241.008 416.242 240.854 416.345C240.7 416.449 240.58 416.595 240.509 416.766C240.438 416.938 240.419 417.126 240.456 417.308C240.492 417.49 240.581 417.657 240.712 417.788C240.843 417.919 241.01 418.008 241.192 418.044C241.374 418.081 241.562 418.062 241.734 417.991C241.905 417.92 242.051 417.8 242.155 417.646C242.258 417.492 242.312 417.31 242.312 417.125C242.312 416.876 242.214 416.638 242.038 416.462C241.862 416.286 241.624 416.187 241.375 416.187ZM247.541 417.192C247.368 417.272 247.179 417.313 246.989 417.313C246.816 417.313 246.644 417.278 246.485 417.21C246.326 417.141 246.182 417.042 246.062 416.917V421.25C246.062 422.195 245.687 423.101 245.019 423.769C244.351 424.437 243.445 424.812 242.5 424.812H233.5C232.555 424.812 231.649 424.437 230.981 423.769C230.313 423.101 229.937 422.195 229.937 421.25V416.917C229.817 417.042 229.673 417.141 229.514 417.209C229.355 417.277 229.184 417.312 229.01 417.312C228.82 417.312 228.632 417.271 228.459 417.192C228.189 417.073 227.968 416.866 227.831 416.604C227.695 416.343 227.652 416.043 227.709 415.753L229.248 407.503C229.281 407.328 229.35 407.16 229.45 407.012C229.55 406.863 229.679 406.737 229.83 406.64C229.981 406.544 230.15 406.479 230.326 406.45C230.503 406.421 230.684 406.429 230.857 406.472L230.88 406.479L235.831 407.937H240.169L245.118 406.483L245.141 406.477C245.315 406.433 245.495 406.426 245.672 406.455C245.848 406.484 246.017 406.549 246.168 406.645C246.319 406.742 246.448 406.868 246.548 407.016C246.648 407.165 246.717 407.332 246.75 407.508L248.289 415.758C248.346 416.047 248.303 416.346 248.167 416.607C248.031 416.867 247.81 417.074 247.541 417.192ZM234.801 408.807L230.579 407.562C230.555 407.557 230.53 407.556 230.506 407.561C230.482 407.565 230.459 407.574 230.439 407.588C230.418 407.602 230.399 407.62 230.385 407.641C230.371 407.662 230.361 407.686 230.357 407.712L228.817 415.962C228.809 416.003 228.815 416.046 228.835 416.083C228.854 416.121 228.885 416.15 228.924 416.168C228.962 416.185 229.005 416.189 229.046 416.179C229.087 416.169 229.123 416.146 229.149 416.112L234.801 408.807ZM244.938 421.25V415.478L239.974 409.062H236.026L231.062 415.478V421.25C231.062 421.896 231.319 422.516 231.776 422.974C232.234 423.431 232.854 423.687 233.5 423.687H237.437V422.232L236.102 420.897C236.003 420.791 235.949 420.65 235.952 420.504C235.954 420.358 236.013 420.219 236.116 420.116C236.219 420.013 236.358 419.954 236.504 419.952C236.65 419.949 236.791 420.003 236.897 420.102L238 421.204L239.102 420.102C239.209 420.003 239.35 419.949 239.496 419.952C239.642 419.954 239.781 420.013 239.884 420.116C239.987 420.219 240.046 420.358 240.048 420.504C240.051 420.65 239.997 420.791 239.898 420.897L238.562 422.232V423.687H242.5C243.146 423.687 243.766 423.431 244.224 422.974C244.681 422.516 244.938 421.896 244.938 421.25ZM247.188 415.962L245.648 407.712C245.643 407.688 245.634 407.664 245.62 407.643C245.605 407.621 245.587 407.603 245.566 407.59C245.524 407.564 245.474 407.555 245.426 407.564L241.207 408.805L246.862 416.117C246.889 416.148 246.925 416.168 246.965 416.177C247.005 416.185 247.046 416.18 247.083 416.162C247.12 416.145 247.15 416.116 247.169 416.08C247.187 416.044 247.194 416.003 247.188 415.962Z" fill="white" fill-opacity="0.21"/>
</svg>
